<svg width="500" height="146" viewBox="0 0 500 146" fill="none" xmlns="http://www.w3.org/2000/svg">
<g clip-path="url(#clip0_186_7716)">
<path d="M95.551 52.5911C104.958 59.3121 116.482 63.2666 128.928 63.2666V39.3281C126.573 39.3286 124.223 39.0831 121.919 38.5951V57.4381C109.473 57.4381 97.951 53.4836 88.5415 46.7631V95.6146C88.5415 120.053 68.7205 139.862 44.2715 139.862C35.149 139.862 26.67 137.106 19.6265 132.378C27.6655 140.594 38.8765 145.69 51.2795 145.69C75.73 145.69 95.552 125.881 95.552 101.442V52.5911H95.551ZM104.198 28.4401C99.3905 23.1906 96.234 16.4066 95.551 8.90664V5.82764H88.9085C90.5805 15.3601 96.2835 23.5041 104.198 28.4401ZM35.0905 113.625C32.4045 110.105 30.953 105.799 30.9595 101.372C30.9595 90.1946 40.0255 81.1321 51.2105 81.1321C53.295 81.1316 55.367 81.4506 57.3535 82.0806V57.6071C55.032 57.2891 52.689 57.1541 50.347 57.2036V76.2526C48.359 75.6226 46.286 75.3026 44.201 75.3046C33.016 75.3046 23.9505 84.3661 23.9505 95.5446C23.9505 103.449 28.482 110.292 35.0905 113.625Z" fill="#FF004F"/>
<path d="M88.5415 46.7626C97.951 53.4831 109.473 57.4376 121.919 57.4376V38.5946C114.972 37.1156 108.822 33.4871 104.198 28.4401C96.283 23.5036 90.5805 15.3596 88.9085 5.82764H71.4605V101.441C71.421 112.587 62.3705 121.613 51.2095 121.613C44.6325 121.613 38.7895 118.479 35.089 113.625C28.481 110.292 23.9495 103.448 23.9495 95.5451C23.9495 84.3676 33.015 75.3051 44.2 75.3051C46.343 75.3051 48.4085 75.6386 50.346 76.2531V57.2041C26.3265 57.7001 7.009 77.3161 7.009 101.441C7.009 113.484 11.8195 124.402 19.627 132.379C26.6705 137.106 35.1495 139.863 44.272 139.863C68.7215 139.863 88.542 120.052 88.542 95.6146V46.7626H88.5415Z" fill="black"/>
<path d="M121.919 38.5945V33.4995C115.654 33.509 109.513 31.7555 104.198 28.4395C108.903 33.588 115.098 37.138 121.919 38.5945ZM88.9085 5.8275C88.749 4.9165 88.6265 3.9995 88.5415 3.079V0H64.4505V95.614C64.412 106.759 55.362 115.785 44.2 115.785C40.923 115.785 37.829 115.007 35.089 113.626C38.7895 118.479 44.6325 121.612 51.2095 121.612C62.3695 121.612 71.4215 112.588 71.4605 101.441V5.8275H88.9085ZM50.347 57.204V51.78C48.334 51.505 46.3045 51.367 44.2725 51.368C19.821 51.3675 0 71.178 0 95.614C0 110.934 7.79 124.436 19.6275 132.378C11.82 124.401 7.0095 113.483 7.0095 101.44C7.0095 77.316 26.3265 57.7 50.347 57.204Z" fill="#00F2EA"/>
<path d="M401.063 119.829C418.558 119.829 432.74 105.761 432.74 88.4093C432.74 71.0578 418.558 56.9873 401.063 56.9873H396.291C413.786 56.9873 427.968 71.0573 427.968 88.4093C427.968 105.761 413.786 119.829 396.291 119.829H401.063Z" fill="#FF004F"/>
<path d="M395.858 56.9873H391.086C373.592 56.9873 359.407 71.0573 359.407 88.4093C359.407 105.761 373.592 119.829 391.086 119.829H395.858C378.361 119.829 364.179 105.761 364.179 88.4093C364.178 71.0578 378.361 56.9873 395.858 56.9873Z" fill="#00F2EA"/>
<path d="M155.031 42.7861V58.7126H173.686V119.4H192.35V59.1426H207.536L212.742 42.7866L155.031 42.7861ZM307.772 42.7861V58.7126H326.427V119.4H345.091V59.1426H360.276L365.483 42.7866L307.772 42.7861ZM216.217 51.8241C216.217 46.8336 220.29 42.7861 225.322 42.7861C230.359 42.7861 234.436 46.8336 234.436 51.8241C234.436 56.8151 230.361 60.8626 225.322 60.8626C220.29 60.8601 216.217 56.8151 216.217 51.8241ZM216.217 67.3206H234.436V119.4H216.217V67.3206ZM242.248 42.7861V119.399H260.474V99.6021L266.116 94.4326L283.904 119.829H303.429L277.826 82.8141L300.824 60.4301H278.695L260.474 78.5066V42.7861H242.248ZM438.811 42.7861V119.399H457.04V99.6021L462.679 94.4326L480.473 119.829H500L474.397 82.8141L497.394 60.4301H475.266L457.04 78.5066V42.7861H438.811Z" fill="black"/>
<path d="M396.289 119.829C413.783 119.829 427.968 105.761 427.968 88.4093C427.968 71.0578 413.783 56.9873 396.289 56.9873H395.856C378.361 56.9873 364.179 71.0573 364.179 88.4093C364.179 105.761 378.361 119.829 395.856 119.829H396.289ZM380.668 88.4093C380.668 79.9688 387.568 73.1318 396.076 73.1318C404.579 73.1318 411.478 79.9688 411.478 88.4093C411.478 96.8498 404.579 103.691 396.076 103.691C387.568 103.689 380.668 96.8498 380.668 88.4093Z" fill="black"/>
</g>
<defs>
<clipPath id="clip0_186_7716">
<rect width="500" height="145.689" fill="white"/>
</clipPath>
</defs>
</svg>
