<?xml version="1.0" encoding="utf-8"?>
<!-- Generator: Adobe Illustrator 15.0.2, SVG Export Plug-In  -->
<!DOCTYPE svg PUBLIC "-//W3C//DTD SVG 1.1 Tiny//EN" "http://www.w3.org/Graphics/SVG/1.1/DTD/svg11-tiny.dtd" [
	<!ENTITY ns_flows "http://ns.adobe.com/Flows/1.0/">
]>
<svg version="1.1" baseProfile="tiny"
	 xmlns="http://www.w3.org/2000/svg" xmlns:xlink="http://www.w3.org/1999/xlink" xmlns:a="http://ns.adobe.com/AdobeSVGViewerExtensions/3.0/"
	 x="0px" y="0px" width="299px" height="88px" viewBox="-4.9580078 10.2182617 299 88" xml:space="preserve">
<defs>
</defs>
<g>
	<path fill="#FFC425" d="M76.4282227,68.8115234h5.7851563c0.0380859-3.3022461,2.6977539-5.9814453,5.9926758-6.0566406v-5.7851563
		C81.7211914,57.0458984,76.4663086,62.3193359,76.4282227,68.8115234z"/>
	<path fill="#FFC425" d="M66.9399414,68.8115234h5.0136719c0.0385742-8.9619141,7.300293-16.2446289,16.2524414-16.3208008
		v-5.0136719C76.4892578,47.5532227,66.9785156,57.0849609,66.9399414,68.8115234z"/>
	<path fill="#FFC425" d="M57.440918,68.8115234h4.2431641c0.0380859-14.621582,11.9072266-26.5112305,26.5219727-26.5878906
		v-4.2431641C71.2519531,38.0571289,57.4790039,51.8500977,57.440918,68.8115234z"/>
	<path fill="#FFC425" d="M47.9487305,68.8115234h3.4707031c0.0380859-20.2817383,16.512207-36.7758789,36.7866211-36.8525391
		v-3.4707031C66.0175781,28.5649414,47.9868164,46.6162109,47.9487305,68.8115234z"/>
	<path fill="#FFC425" d="M38.4560547,68.8115234H41.15625c0.0380859-25.9423828,21.1162109-47.0419922,47.0498047-47.1186523
		v-2.7001953C60.7836914,19.0693359,38.4941406,41.3803711,38.4560547,68.8115234z"/>
	<path fill="#FFC425" d="M30.8896484,68.8115234c0.0283203-23.6713867,14.4462891-44.0317383,34.9589844-52.7939453h-4.5043945
		C42.159668,25.8564453,28.987793,45.8168945,28.9609375,68.8115234H30.8896484z"/>
	<path fill="#FFC425" d="M20.6254883,68.8115234c0.0214844-21.3393555,9.972168-40.3862305,25.4614258-52.7939453h-1.8393555
		C29.1313477,28.6489258,19.4897461,47.6225586,19.4682617,68.8115234H20.6254883z"/>
</g>
<path fill="#004990" d="M124.8369141,46.0942383c0,6.4018555-0.7304688,14.5620117-7.2055664,19.4199219
	c-7.3549805,5.3681641-23.9814453,5.8076172-32.8803711,0.8076172c-9.2685547-5.1459961-8.8271484-17.7275391-8.8271484-20.081543
	V23.9526367l-6.105957-7.9472656h25.012207l-6.1088867,7.9472656v22.1416016c0,1.9106445-0.3662109,8.9711914,4.6337891,13.019043
	c4.7089844,3.8237305,10.300293,3.3837891,14.7133789-0.1479492c4.046875-3.234375,3.9716797-10.3710938,3.9716797-12.7250977
	V20.2763672c0-1.9892578,1.6196289-3.8999023,3.6035156-4.1240234c2.2099609-0.2182617,3.753418-0.2182617,5.5927734,0
	c1.9121094,0.2241211,3.6005859,2.2075195,3.6005859,4.269043V46.0942383L124.8369141,46.0942383z M207.9350586,62.1279297
	c1.9140625-0.0751953,1.3261719,4.4873047-0.3671875,5.2250977c-5.2949219,2.2792969-17.7246094,2.9433594-23.3173828,1.2509766
	c-10.5224609-3.1308594-20.1425781-10.1845703-21.8662109-22.7353516c-0.7988281,0.2216797-1.6816406,0.3378906-2.3925781,0.371582
	c-1.6933594,0.0722656-6.2539063,0.2192383-8.9775391,0.3681641c-3.1611328,0.1469727-8.3852539,1.6176758-8.3852539,6.765625
	v11.0361328c0,2.5024414-1.765625,4.4130859-4.5581055,4.4130859h-15.0820313l6.1054688-7.7211914v-11.699707V21.8164063
	c0-4.3359375,3.2363281-5.8110352,5.5175781-5.8110352c10.2983398,0.0751953,22.2900391,0,25.7451172,0
	c2.3554688,0,4.1191406,0.5932617,4.5625,1.9125977c0.3671875,1.1811523,0.2929688,1.6938477-0.0742188,2.6499023
	c-0.3691406,0.8818359-2.2792969,1.3979492-4.1210938,1.5439453c-2.2080078,0.1469727-4.8515625,0.3691406-7.9433594,0.4443359
	c-5,0.1445313-10.1518555,1.1015625-10.1518555,8.0878906c0,7.7236328,7.6538086,8.7558594,9.4155273,8.8291016
	c2.0595703,0.0737305,5.4462891,0.222168,7.9472656,0.3691406c0.7802734,0.0517578,1.5136719,0.1567383,2.1542969,0.3334961
	c0.5986328-12.8276367,8.5546875-19.8994141,17.3964844-23.5771484c5.3710938-2.2104492,21.0371094-2.7983398,26.8476563,1.0273438
	c0.3779297,0.2475586,0.703125,0.5185547,0.984375,0.7929688c0.3066406-1.5151367,1.1757813-2.5605469,2.9882813-2.5605469
	c2.7988281,0,3.7519531-0.1464844,6.1054688,0.3691406c2.1308594,0.4414063,3.6015625,3.7495117,3.8994141,6.5458984
	c0.5126953,5.0756836,2.8681641,17.5083008,3.9677734,21.5532227c1.9179688,7.0615234,4.7861328,6.1826172,7.2871094-3.4560547
	c1.3925781-5.3691406,2.6484375-13.168457,3.75-18.9765625c0.8134766-4.4135742,2.5039063-6.4731445,5.7353516-6.4731445
	c3.5361328-0.0791016,7.5029297,0,8.9775391,0c3.0878906,0,4.7089844,1.3222656,5.5917969,6.3261719
	c0.8837891,5.2202148,2.4277344,13.9013672,3.9697266,20.0078125c2.5019531,9.9291992,5.2978516,8.972168,6.9873047,2.203125
	c1.3974609-5.5151367,3.6796875-16.4013672,4.4873047-21.4770508c0.4472656-2.7973633,1.4716797-5.8120117,3.6054688-6.253418
	c2.3544922-0.515625,3.3095703-0.3691406,6.1064453-0.3691406c4.484375,0,3.1630859,5.5200195,2.0595703,10.4472656
	c-1.0292969,4.7827148-6.4013672,25.8920898-7.9472656,32.9545898c-1.3222656,6.1821289-1.9101563,9.34375-7.6494141,9.4916992
	c-2.6455078,0.0712891-5.7353516,0.0712891-7.7958984,0c-5.0751953-0.1479492-5.3720703-5.3017578-6.6171875-11.1088867
	c-0.8134766-3.824707-2.4335938-12.5068359-3.5341797-16.9921875c-1.6201172-6.5507813-5.3691406-6.4755859-7.1337891,0.1445313
	c-1.1074219,4.046875-3.1630859,12.2124023-3.8974609,16.8476563c-0.9589844,6.1044922-1.9882813,10.9609375-6.8417969,11.1088867
	c-3.6054688,0.0712891-4.7050781,0.0712891-7.5058594,0c-5.2939453-0.1479492-6.4013672-4.0444336-8.0146484-10.0800781
	c-1.3261719-5.1508789-6.1826172-27.0683594-7.6513672-32.3662109c-0.3085938-1.1303711-0.6337891-2.4423828-0.84375-3.7451172
	c-0.2089844,0.0297852-0.4433594,0.0297852-0.7011719-0.0043945c-15.9628906-2.5039063-22.4375,0-28.4648438,8.6049805
	c-4.3427734,6.1777344-2.5068359,16.9189453-0.515625,20.2270508
	C185.0561523,63.6723633,196.168457,62.5722656,207.9350586,62.1279297L207.9350586,62.1279297z"/>
<rect y="68.7451172" fill="#004990" width="289.7993164" height="24.6606445"/>
<polygon fill="#FFC425" points="19.2319336,73.6088867 20.9331055,75.0629883 25.2797852,87.0073242 27.2709961,87.0073242 
	31.7475586,75.0629883 33.4243164,73.6088867 28.1865234,73.6088867 29.8374023,75.0180664 26.9824219,83.0737305 
	24.2592773,75.0180664 25.909668,73.6088867 19.2319336,73.6088867 "/>
<path fill-rule="evenodd" fill="#FFC425" d="M40.8334961,87.3901367c4.2431641,0,7.0703125-3.4238281,7.0703125-7.0839844
	c0-3.65625-2.8271484-7.0839844-7.0703125-7.0839844c-4.2416992,0-7.0693359,3.4277344-7.0693359,7.0839844
	C33.7641602,83.9663086,36.5917969,87.3901367,40.8334961,87.3901367L40.8334961,87.3901367z M37.5341797,80.3061523
	c0-2.5195313,0.4975586-5.6982422,3.2993164-5.6982422c2.8022461,0,3.3007813,3.1787109,3.3007813,5.6982422
	s-0.4985352,5.6992188-3.3007813,5.6992188C38.0317383,86.0053711,37.5341797,82.8256836,37.5341797,80.3061523
	L37.5341797,80.3061523z"/>
<polygon fill="#FFC425" points="51.1992188,75.0405273 51.1992188,85.5756836 49.5478516,87.0073242 56.0952148,87.0073242 
	54.4462891,85.5756836 54.4462891,75.0405273 56.0952148,73.6088867 49.5478516,73.6088867 51.1992188,75.0405273 "/>
<path fill="#FFC425" d="M57.7397461,80.3061523c0,3.6152344,3.0888672,6.9941406,7.0693359,6.9941406
	c1.703125,0,2.8022461-0.0878906,4.3466797-0.7910156v-3.3632813l-2.4355469,2.109375
	c-0.5488281,0.4765625-1.1269531,0.6591797-1.9111328,0.6591797c-2.8276367,0-3.2988281-3.1308594-3.2988281-5.6083984
	c0-2.5195313,0.3666992-5.6982422,3.2988281-5.6982422c0.7841797,0,1.3623047,0.1816406,1.9111328,0.6376953l2.4355469,2.1328125
	v-3.2675781c-1.5444336-0.7050781-2.4873047-0.7988281-4.3466797-0.7988281
	C60.8286133,73.3120117,57.7397461,76.6948242,57.7397461,80.3061523L57.7397461,80.3061523z"/>
<polygon fill="#FFC425" points="81.4731445,83.8041992 79.3779297,85.6186523 75.4492188,85.6186523 75.4492188,80.5795898 
	78.1708984,80.5795898 79.8208008,82.0112305 79.8208008,77.7416992 78.1708984,79.1967773 75.4492188,79.1967773 
	75.4492188,74.9946289 79.3779297,74.9946289 81.4731445,76.8100586 81.4731445,73.6088867 70.578125,73.6088867 
	72.2285156,75.0405273 72.2285156,85.5756836 70.578125,87.0073242 81.4731445,87.0073242 81.4731445,83.8041992 "/>
<path fill="#FFFFFF" d="M91.9296875,77.5795898v-2.609375c0-0.6796875,0.5224609-1.1777344,1.1767578-1.40625l1.1518555,1
	l1.5966797-1.7021484h-2.7485352c-1.5185547,0-2.8808594,1.2001953-2.8808594,2.9931641v1.7753906l-1.3095703,1.1347656h1.3095703
	v7.2636719L89.125,87.0073242h3.9291992l-1.1245117-0.9785156v-7.6298828h1.7524414v-0.8193359H91.9296875L91.9296875,77.5795898z"
	/>
<path fill="#FFFFFF" d="M101.2924805,87.2553711c3.0644531,0,5.1054688-2.4335938,5.1054688-5.0625
	c0-2.6357422-2.0410156-5.0449219-5.1054688-5.0449219c-3.0371094,0-5.1064453,2.4091797-5.1064453,5.0449219
	C96.1860352,84.8217773,98.2553711,87.2553711,101.2924805,87.2553711L101.2924805,87.2553711z M98.2285156,82.1928711
	c0-2.0429688,0.8129883-4.2890625,3.0639648-4.2890625c2.2783203,0,3.0898438,2.2460938,3.0898438,4.2890625
	s-0.8115234,4.2861328-3.0898438,4.2861328C99.0415039,86.4790039,98.2285156,84.2358398,98.2285156,82.1928711
	L98.2285156,82.1928711z"/>
<path fill="#FFFFFF" d="M111.0693359,79.1479492v-1.9042969l-2.777832,1.0449219l1.074707,0.9277344v6.8125l-1.1264648,0.9785156
	h3.9311523l-1.1015625-0.9785156v-5.6777344l2.0952148-2.0195313l2.144043,1.8857422V77.331543
	c-0.2583008-0.0878906-0.7050781-0.15625-0.9145508-0.15625c-1.2055664,0-1.8847656,0.6113281-2.3837891,1.0878906
	L111.0693359,79.1479492L111.0693359,79.1479492z"/>
<polygon fill="#FFFFFF" points="129.8173828,80.1499023 132.4868164,87.0073242 133.1689453,87.0073242 136.4399414,78.559082 
	137.5654297,77.5795898 134.0844727,77.5795898 135.1582031,78.5356445 133.0878906,84.3041992 131.0200195,78.5356445 
	132.1196289,77.5795898 128.0600586,77.5795898 129.159668,78.5356445 127.0932617,84.3041992 125.0224609,78.5356445 
	126.0957031,77.5795898 122.0649414,77.5795898 123.2167969,78.559082 126.4887695,87.0073242 127.144043,87.0073242 
	129.8173828,80.1499023 "/>
<path fill="#FFFFFF" d="M143.9731445,87.2553711c3.0615234,0,5.1044922-2.4335938,5.1044922-5.0625
	c0-2.6357422-2.0429688-5.0449219-5.1044922-5.0449219c-3.0405273,0-5.1079102,2.4091797-5.1079102,5.0449219
	C138.8652344,84.8217773,140.9326172,87.2553711,143.9731445,87.2553711L143.9731445,87.2553711z M140.9067383,82.1928711
	c0-2.0429688,0.8120117-4.2890625,3.0664063-4.2890625c2.2763672,0,3.0898438,2.2460938,3.0898438,4.2890625
	s-0.8134766,4.2861328-3.0898438,4.2861328C141.71875,86.4790039,140.9067383,84.2358398,140.9067383,82.1928711
	L140.9067383,82.1928711z"/>
<path fill="#FFFFFF" d="M153.7475586,79.1479492v-1.9042969l-2.7783203,1.0449219l1.0771484,0.9277344v6.8125l-1.1279297,0.9785156
	h3.9267578l-1.0976563-0.9785156v-5.6777344l2.09375-2.0195313l2.1464844,1.8857422V77.331543
	c-0.2578125-0.0878906-0.703125-0.15625-0.9140625-0.15625c-1.2050781,0-1.8867188,0.6113281-2.3857422,1.0878906
	L153.7475586,79.1479492L153.7475586,79.1479492z"/>
<polygon fill="#FFFFFF" points="162.4829102,82.2827148 166.7768555,86.0288086 166.7768555,87.0073242 170.0249023,87.0073242 
	164.0532227,81.8295898 169.1616211,77.4008789 165.7827148,77.4008789 166.7260742,78.2163086 162.4829102,81.9213867 
	162.4829102,72.6362305 159.7338867,73.5639648 160.7807617,74.472168 160.7807617,86.0288086 159.6538086,87.0073242 
	163.5854492,87.0073242 162.4829102,86.0288086 162.4829102,82.2827148 "/>
<path fill="#FFFFFF" d="M173.8823242,86.0288086v-8.7851563l-2.7744141,1.0449219l1.0751953,0.9277344v6.8125l-1.0996094,0.9785156
	h3.9296875L173.8823242,86.0288086L173.8823242,86.0288086z M173.0493164,74.269043
	c-0.5244141,0-0.9697266,0.3867188-0.9697266,0.8398438c0,0.4550781,0.4453125,0.8154297,0.9697266,0.8154297
	c0.5205078,0,0.9443359-0.3603516,0.9443359-0.8154297C173.9936523,74.6557617,173.5698242,74.269043,173.0493164,74.269043
	L173.0493164,74.269043z"/>
<path fill="#FFFFFF" d="M179.7475586,79.1733398v-1.9296875l-2.7763672,1.0449219l1.0771484,0.9277344v6.8125l-1.1269531,0.9785156
	h3.9267578l-1.1005859-0.9785156V80.237793l1.0732422-0.9042969c1.1005859-1.0019531,2.0185547-1.1621094,2.6220703-1.1621094
	c1.2294922,0,1.6992188,0.9335938,1.6992188,1.2714844v7.5644531h2.8046875l-1.1025391-0.9785156v-6.9492188
	c0-0.7675781-0.8623047-2.1523438-2.8798828-2.1523438c-0.6289063,0-1.859375,0.2001953-3.2744141,1.4277344L179.7475586,79.1733398
	L179.7475586,79.1733398z"/>
<path fill="#FFFFFF" d="M193.909668,83.3032227c2.0966797,0,4.1894531-1.0439453,4.1894531-2.9033203
	c0-0.7060547-0.2880859-1.1621094-0.734375-1.6816406l1.5195313-1.2255859h-4.9746094
	c-2.0458984,0-4.1660156,1.1123047-4.1660156,2.9072266c0,0.9072266,0.5800781,1.7451172,1.5175781,2.2910156v4.3164063h2.4912109
	c1.5419922,0,3.5117188,0.1796875,3.5117188,1.4267578c0,1.2509766-1.9697266,1.4560547-3.5117188,1.4560547h-1.6005859
	l-1.2304688-1.0898438l-1.6738281,1.9951172h4.5048828c2.2216797,0,5.0019531-0.6357422,5.0019531-2.6337891
	c0-2.0214844-2.7802734-2.6298828-5.0019531-2.6298828h-0.7861328v-2.3154297
	C193.2788086,83.2163086,193.5424805,83.3032227,193.909668,83.3032227L193.909668,83.3032227z M196.2924805,80.3999023
	c0,1.1992188-1.0214844,2.2910156-2.3828125,2.2910156c-1.359375,0-2.3574219-1.0917969-2.3574219-2.2910156
	c0-1.1835938,0.9980469-2.2949219,2.3574219-2.2949219C195.2709961,78.1049805,196.2924805,79.1967773,196.2924805,80.3999023
	L196.2924805,80.3999023z"/>
<path fill="#FFFFFF" d="M208.8041992,83.1206055h5.1074219l1.0732422,2.8388672l-1.2021484,1.0478516h4.3740234
	l-1.2304688-1.0927734l-4.8193359-12.3056641h-0.7890625l-4.8955078,12.3056641l-1.2568359,1.0927734h3.7207031
	l-1.2060547-1.0478516L208.8041992,83.1206055L208.8041992,83.1206055z M213.519043,82.1245117h-4.3212891l2.2001953-5.5390625
	L213.519043,82.1245117L213.519043,82.1245117z"/>
<path fill="#FFFFFF" d="M222.0532227,79.2651367v-2.0214844l-2.7763672,1.0449219l1.0722656,0.9277344v6.8125l-1.1230469,0.9785156
	h3.9277344l-1.1005859-0.9785156v-5.6777344l1.0732422-0.9296875c0.8085938-0.7255859,1.4140625-1.1328125,2.0957031-1.1328125
	c0.7841797,0,1.1240234,0.703125,1.1240234,1.0644531v7.6542969h2.8056641l-1.1025391-0.9785156v-5.6777344l1.0771484-0.9296875
	c0.8105469-0.7255859,1.4121094-1.1328125,2.1191406-1.1328125c0.7578125,0,1.0996094,0.703125,1.0996094,1.0644531v7.6542969
	h2.8291016l-1.1279297-0.9785156v-6.5859375c0-0.8837891-0.2851563-2.3808594-2.1464844-2.3808594
	c-0.8378906,0-1.7548828,0.3847656-2.90625,1.3808594l-0.9169922,0.7949219c0-0.90625-0.5498047-2.1757813-2.2041016-2.1757813
	c-0.8066406,0-1.7226563,0.3847656-2.875,1.3808594L222.0532227,79.2651367L222.0532227,79.2651367z"/>
<path fill="#FFFFFF" d="M246.2817383,81.3520508c0-2.2939453-2.1220703-4.2470703-4.7119141-4.2470703
	c-2.9365234,0-4.5869141,2.5888672-4.5869141,5.0878906c0,2.4746094,1.5712891,4.9941406,4.5869141,4.9941406
	c2.6669922,0,3.6113281-1.1582031,4.1337891-1.7919922l-0.546875-0.4785156
	c-0.5224609,0.5419922-1.390625,1.3408203-2.9619141,1.3408203c-3.0390625,0-3.0878906-3.6816406-3.0878906-4.2695313h7.1210938
	C246.2280273,81.987793,246.2817383,81.5571289,246.2817383,81.3520508L246.2817383,81.3520508z M241.5698242,77.9291992
	c1.4384766,0,2.7226563,1.3085938,2.7226563,2.4921875c0,0.3652344-0.1064453,0.5683594-0.2119141,0.7490234
	c0,0-4.2666016,0-4.9443359,0C239.1362305,80.690918,239.3959961,77.9291992,241.5698242,77.9291992L241.5698242,77.9291992z"/>
<path fill="#FFFFFF" d="M250.9145508,79.1479492v-1.9042969l-2.7763672,1.0449219l1.0742188,0.9277344v6.8125l-1.1289063,0.9785156
	h3.9296875l-1.0986328-0.9785156v-5.6777344l2.0947266-2.0195313l2.1464844,1.8857422V77.331543
	c-0.2626953-0.0878906-0.7089844-0.15625-0.9160156-0.15625c-1.2070313,0-1.8876953,0.6113281-2.3808594,1.0878906
	L250.9145508,79.1479492L250.9145508,79.1479492z"/>
<path fill="#FFFFFF" d="M259.9624023,86.0288086v-8.7851563l-2.7734375,1.0449219l1.0703125,0.9277344v6.8125l-1.0986328,0.9785156
	h3.9287109L259.9624023,86.0288086L259.9624023,86.0288086z M259.1254883,74.269043
	c-0.5253906,0-0.9697266,0.3867188-0.9697266,0.8398438c0,0.4550781,0.4443359,0.8154297,0.9697266,0.8154297
	c0.5244141,0,0.9423828-0.3603516,0.9423828-0.8154297C260.0678711,74.6557617,259.6499023,74.269043,259.1254883,74.269043
	L259.1254883,74.269043z"/>
<path fill="#FFFFFF" d="M269.4956055,78.559082l1.8828125,1.6582031v-2.2275391
	c-1.203125-0.7255859-2.1728516-0.7929688-3.5625-0.7929688c-2.90625,0-4.5800781,2.5410156-4.5800781,4.9960938
	c0,2.5869141,1.7001953,4.9941406,4.7128906,4.9941406c1.4912109,0,2.4863281-0.3632813,3.4804688-1.2929688l-0.5732422-0.4990234
	c-0.5009766,0.4736328-1.5986328,0.8623047-2.2783203,0.8623047c-2.0673828,0-3.2988281-1.5-3.2988281-4.2460938
	c0-1.7734375,0.4433594-3.9960938,2.6445313-3.9960938C268.550293,78.0151367,268.9956055,78.1499023,269.4956055,78.559082
	L269.4956055,78.559082z"/>
<path fill="#FFFFFF" d="M278.0366211,78.0151367c1.046875,0,1.9599609,0.6347656,1.9599609,1.5419922v1.6132813h-2.4091797
	c-2.1933594,0-4.1347656,1.4755859-4.1347656,3.3837891c0,1.5644531,1.0458984,2.7460938,2.2519531,2.7460938
	c0.2890625,0,0.5527344-0.0878906,0.8398438-0.2285156l3.4521484-1.7246094v1.6601563h2.8330078l-1.1269531-0.9785156v-6.3808594
	c0-1.3847656-1.6503906-2.4511719-3.6660156-2.4511719c-1.0976563,0-2.4863281,0.25-3.2763672,0.75v2.2705078l1.9150391-1.6582031
	C277.065918,78.2163086,277.4594727,78.0151367,278.0366211,78.0151367L278.0366211,78.0151367z M279.996582,81.8989258v2.6298828
	l-2.6660156,1.3857422c-0.2646484,0.1376953-0.6826172,0.2255859-0.9169922,0.2255859c-0.5244141,0-1.125-0.3613281-1.125-1.5859375
	c0-1.5683594,1.2011719-2.6552734,2.8515625-2.6552734H279.996582L279.996582,81.8989258z"/>
<path fill="#FFFFFF" d="M11.246582,78.0151367c1.046875,0,1.9594727,0.6347656,1.9594727,1.5419922v1.6132813h-2.4086914
	c-2.1943359,0-4.1342773,1.4755859-4.1342773,3.3837891c0,1.5644531,1.0444336,2.7460938,2.2524414,2.7460938
	c0.2880859,0,0.5512695-0.0878906,0.8393555-0.2285156l3.4511719-1.7246094v1.6601563h2.8334961l-1.1279297-0.9785156v-6.3808594
	c0-1.3847656-1.6494141-2.4511719-3.6650391-2.4511719c-1.0986328,0-2.4858398,0.25-3.2749023,0.75v2.2705078l1.9145508-1.6582031
	C10.2753906,78.2163086,10.668457,78.0151367,11.246582,78.0151367L11.246582,78.0151367z M13.2060547,81.8989258v2.6298828
	l-2.6655273,1.3857422c-0.2651367,0.1376953-0.6831055,0.2255859-0.9174805,0.2255859
	c-0.5249023,0-1.1254883-0.3613281-1.1254883-1.5859375c0-1.5683594,1.2016602-2.6552734,2.8535156-2.6552734H13.2060547
	L13.2060547,81.8989258z"/>
</svg>
