<svg xmlns="http://www.w3.org/2000/svg" viewBox="0 0 217 69" xml:space="preserve">
<g>
	<path fill="#034A6C" d="M85.2,39.2h-7V40h1.6c0.6,0,0.7,0.5,0.7,3.5V55c0,0.1,0,0.2-0.5,0.2h-1.1V56h5.7v-0.8h-1.5
		c-0.5,0-0.8,0-0.8-3.8v-3.3c0.7,0.2,1.5,0.3,2.3,0.3c2.8,0,5.8-1.5,5.8-4.8C90.4,41.5,88.8,39.2,85.2,39.2z M82.3,40.4
		c0-0.2,0.5-0.2,0.9-0.2h1.2c0.7,0,4.2,0.2,4.2,3.9c0,1.7-1.1,3.5-4.1,3.5c-0.8,0-1.5-0.1-2.2-0.3V40.4z"/>
	<path fill="#034A6C" d="M101.9,51.9v-7.6l0,0c-0.3,0-0.7,0.1-1.2,0.1c-0.2,0-0.4,0.1-0.6,0.1s-0.3,0-0.5,0.1c-0.5,0.1-1.1,0.1-1.3,0.1
		l0,0v0.7h1.4c0.4,0,0.7,0,0.7,2.3v5.6c-1,1-2.3,1.7-3.5,1.7c-2.3,0-2.3-1.6-2.3-3.7v-7l0,0c-0.3,0-0.7,0.1-1.2,0.1
		c-0.2,0-0.4,0.1-0.6,0.1s-0.3,0-0.5,0.1c-0.5,0.1-1.1,0.1-1.3,0.1l0,0v0.7h1.4c0.4,0,0.7,0,0.7,2.3v2.8c0,2.8,0,5.9,3.3,5.9
		c1.7,0,3-1.1,4.3-2.2c0.3,1.2,1.3,2.1,2.4,2.2l0,0l0.9-1.3h-0.1C101.9,54.7,101.9,53.5,101.9,51.9z"/>
	<path fill="#034A6C" d="M111.3,44.3c-1.5,0-2.6,0.7-4.2,1.9v-8.8H107c-1.3,0.3-2.4,0.5-3.6,0.6l0,0v0.7h1.4c0.4,0,0.7,0,0.7,2.3v11.9
		c0,1.1,0,2.2-0.2,3.3v0.1h0.5l0.5-1.3c1.1,0.9,2.5,1.4,3.8,1.4c1.7,0,3.2-0.7,4.2-1.9c1-1.1,1.5-2.7,1.5-4.4
		C115.8,47.3,114.4,44.3,111.3,44.3z M107.1,47.1c1-0.9,1.9-1.5,3.2-1.5c2.8,0,3.8,2.5,3.8,4.8c0,3.8-2.2,5.1-4.2,5.1
		c-1,0-2-0.4-2.8-1V47.1z"/>
	<path fill="#034A6C" d="M119.7,51.3v-14h-0.1c-1.3,0.3-2.4,0.5-3.6,0.6l0,0v0.7h1.4c0.4,0,0.7,0,0.7,2.3v14c0,0.2-0.2,0.2-0.4,0.2h-1
		v0.7h5.2v-0.7h-1.1C119.9,55.2,119.7,55.2,119.7,51.3z"/>
	<path fill="#034A6C" d="M125.9,51.3v-7l0,0c-0.3,0-0.7,0.1-1.2,0.1c-0.2,0-0.4,0.1-0.6,0.1c-0.1,0-0.3,0-0.5,0.1
		c-0.5,0.1-1.1,0.1-1.4,0.1l0,0v0.7h1.4c0.4,0,0.7,0,0.7,2.3V55c0,0.2-0.2,0.2-0.4,0.2h-1v0.7h5.2v-0.7H127
		C126,55.2,125.9,55.2,125.9,51.3z"/>
	<path fill="#034A6C" d="M138,53.9c-0.9,0.9-1.9,1.3-3.3,1.3c-2.1,0-4.5-1.4-4.5-5.3c0.1-4.7,3.7-4.8,4.1-4.8c0.5,0,0.9,0.1,1.2,0.3
		c0.2,0.7,0.8,2.1,1.7,2.1c0.4,0,0.7-0.3,0.7-0.7c0-0.7-1.1-2.4-3.6-2.4c-1.4,0-2.8,0.6-3.8,1.6c-0.9,0.8-1.9,2.3-1.9,4.7
		c0,3.6,2.1,5.9,5.3,5.9c1.7,0,3.4-0.8,4.5-2l0,0L138,53.9L138,53.9z"/>
	<path fill="#034A6C" d="M147.5,51.4V40.2c0-0.2,0.2-0.2,0.6-0.2h1.1v-0.8h-5.8V40h1.6c0.6,0,0.7,0.5,0.7,3.5V55c0,0.1,0,0.2-0.5,0.2
		h-1.1V56h5.7v-0.8h-1.5C147.8,55.1,147.5,55.1,147.5,51.4z"/>
	<path fill="#034A6C" d="M161.8,51.3v-3.7c0-1.2-0.4-3.3-3.2-3.3c-1.7,0-3.2,1-4.4,2v-2l0,0c-0.3,0-0.7,0.1-1.2,0.1
		c-0.2,0-0.4,0.1-0.6,0.1c-0.2,0-0.3,0-0.5,0.1c-0.5,0.1-1.1,0.1-1.3,0.1l0,0v0.7h1.4c0.4,0,0.7,0,0.7,2.3V55c0,0.2-0.2,0.2-0.4,0.2
		h-1v0.7h5.2v-0.7h-1.1c-0.9,0-1.1,0-1.1-3.9v-4.1c1.1-0.9,2.3-1.7,3.9-1.7c1.4,0,2.1,0.9,2.1,2.6v6.8c0,0.2-0.2,0.2-0.4,0.2h-1v0.7
		h5.2v-0.7H163C161.9,55.2,161.8,55.2,161.8,51.3z"/>
	<path fill="#034A6C" d="M170.7,54.8c-0.6,0.3-1.2,0.4-1.8,0.4c-1.6,0-1.8-1.2-1.8-2.4v-7.4h2.4c0.2,0,0.4-0.1,0.4-0.7v-0.1H167v-2.5
		h-0.4l-2.1,2.5c-0.2,0.2-0.3,0.3-0.3,0.5s0.1,0.2,0.7,0.2h0.5v8.5c0,1.5,0.9,2.5,2.3,2.5c1,0,2.3-0.5,3.1-0.9l0,0L170.7,54.8
		L170.7,54.8z"/>
	<path fill="#034A6C" d="M180.7,53.8L180.7,53.8c-1,0.9-2,1.4-3.4,1.4c-3.3,0-4.2-2.7-4.3-5c2.9-0.7,5-1.3,7.8-2.2h0.1v-0.1
		c-0.8-1.7-2.1-3.6-4.4-3.6c-1.6,0-2.9,0.7-3.8,2.1c-0.8,1.2-1.2,2.7-1.2,4.3c0,2.8,1.5,5.7,4.8,5.7c1.9,0,3.5-0.7,4.8-2.1l0,0
		L180.7,53.8L180.7,53.8z M173,49.3c0-2,1.2-4.3,2.9-4.3c1.4,0,2.4,1.5,2.8,2.7L173,49.3z"/>
	<path fill="#034A6C" d="M188.9,44.3c-0.8,0-1.5,0.4-3.4,2.2v-2.2l0,0c-0.3,0-0.7,0.1-1.2,0.1c-0.2,0-0.4,0.1-0.6,0.1s-0.3,0-0.5,0.1
		c-0.5,0.1-1.1,0.1-1.3,0.1l0,0v0.7h1.4c0.4,0,0.7,0,0.7,2.3V55c0,0.2-0.2,0.2-0.4,0.2h-1v0.7h5.2v-0.7h-1.1c-0.9,0-1.1,0-1.1-3.9
		v-3.9c1.1-1.1,1.8-1.5,2.6-1.5c0.9,0,1.1,0.3,1.2,0.5c0.1,0.1,0.1,0.2,0.3,0.2c0.2,0,0.3-0.1,0.6-1.8l0,0l0,0
		C189.9,44.5,189.4,44.3,188.9,44.3z"/>
	<path fill="#034A6C" d="M199.8,53.8L199.8,53.8c-1,0.9-2,1.4-3.4,1.4c-3.3,0-4.2-2.7-4.3-5c2.9-0.7,5-1.3,7.8-2.2h0.1v-0.1
		c-0.8-1.7-2.1-3.6-4.4-3.6c-1.6,0-2.9,0.7-3.8,2.1c-0.8,1.2-1.2,2.7-1.2,4.3c0,2.8,1.5,5.7,4.8,5.7c1.9,0,3.5-0.7,4.8-2.1l0,0
		L199.8,53.8L199.8,53.8z M192.1,49.3c0-2,1.2-4.3,2.9-4.3c1.4,0,2.4,1.5,2.8,2.7L192.1,49.3z"/>
	<path fill="#034A6C" d="M205.3,49.3c-1.5-0.4-2.8-0.8-2.8-2c0-1.4,1.5-2,2.6-2c1.4,0,2.4,0.5,2.9,1.3l0,0c0,0,0,0,0,0.1
		c0.1,0.1,0.1,0.2,0.3,0.2c0.1,0,0.2-0.1,0.2-0.2c0-0.2-0.1-1.1-0.2-1.8l0,0l0,0c-0.8-0.4-1.8-0.6-3-0.6c-2.3,0-4.2,1.6-4.2,3.5
		c0,2.2,2,2.7,3.7,3.2c1.5,0.4,2.9,0.8,2.9,2.1c0,1.1-1,2.4-2.9,2.4c-1.4,0-3.2-0.7-3.3-1.6l0,0c-0.1-0.2-0.1-0.4-0.4-0.4
		c-0.2,0-0.3,0.1-0.3,0.3s0.1,0.7,0.2,1.4c0,0.3,0.1,0.6,0.1,0.9l0,0l0,0c0.9,0.3,1.9,0.5,3,0.5c2.4,0,5-1.2,5-3.7
		C209.2,50.3,207.1,49.8,205.3,49.3z"/>
	<path fill="#034A6C" d="M216.4,54.8L216.4,54.8c-0.7,0.3-1.3,0.4-1.8,0.4c-1.6,0-1.8-1.2-1.8-2.4v-7.4h2.4c0.2,0,0.4-0.1,0.4-0.7v-0.1
		h-2.9v-2.5h-0.3l-2.1,2.5c-0.2,0.2-0.3,0.3-0.3,0.5s0.1,0.2,0.7,0.2h0.5v8.5c0,1.5,0.9,2.5,2.3,2.5c1,0,2.3-0.5,3.1-0.9l0,0
		L216.4,54.8z"/>
	<path fill="#107D4C" d="M160.5,30.4V23c0-0.1,0.1-0.1,0.3-0.1h0.7v-0.6h-3.9v0.6h1.1c0.4,0,0.4,0.3,0.4,2.3v7.6c0,0,0,0.1-0.3,0.1H158
		v0.6h3.9v-0.6h-1C160.7,32.9,160.5,32.9,160.5,30.4z"/>
	<path fill="#107D4C" d="M170.9,22.8h1c0.3,0,0.5,0,0.5,2.5v6l-7.3-9l0,0h-2.3v0.6h0.8c0.6,0,0.7,0.7,0.7,1.2v8.7c0,0,0,0.1-0.3,0.1
		h-0.6v0.6h3.3v-0.6h-1c-0.3,0-0.5,0-0.5-2.5v-6.5l7.7,9.6c0,0,0.1,0.1,0.2,0.1c0.2,0,0.2-0.2,0.2-0.3V23c0,0,0-0.1,0.3-0.1h0.8
		v-0.6h-3.3v0.5H170.9z"/>
	<path fill="#107D4C" d="M189,22.3h-8.5l0,0c-0.4,1.2-0.5,1.4-0.5,1.5s0.1,0.2,0.2,0.2s0.2-0.1,0.3-0.2l0,0c0.4-0.8,2.5-0.8,3.6-0.8
		c0,0,0,0,0.1,0l0,0v9.9c0,0,0,0.1-0.3,0.1h-1.3v0.6h4.7V33H186c-0.3,0-0.5,0-0.5-2.5V23l0,0c0,0,0,0,0.1,0c1.1,0,3.2,0,3.6,0.8l0,0
		c0.1,0.1,0.1,0.2,0.3,0.2c0.1,0,0.2-0.1,0.2-0.2C189.5,23.7,189.4,23.5,189,22.3L189,22.3z"/>
	<path fill="#107D4C" d="M200.1,30.4V23c0-0.1,0.1-0.1,0.4-0.1h0.7v-0.6h-3.8v0.6h1.1c0.4,0,0.4,0.3,0.4,2.3v1.9h-6.2v-4
		c0-0.1,0.1-0.1,0.4-0.1h0.8v-0.6H190V23h1.1c0.4,0,0.4,0.3,0.4,2.3v7.6c0,0,0,0.1-0.3,0.1h-0.8v0.6h3.9V33h-1c-0.3,0-0.5,0-0.5-2.5
		v-2.7h6.2v5.1c0,0,0,0.1-0.3,0.1h-0.8v0.6h3.9V33h-1C200.3,32.9,200.1,32.9,200.1,30.4z"/>
	<path fill="#107D4C" d="M211,31.8c-0.2,0-0.2,0.1-0.2,0.2c-0.3,0.8-2.9,0.8-3.8,0.8h-1.1c-0.6,0-0.7,0-0.7-2.4v-2.8h2.2c2,0,2,0,2,0.4
		v0.7h0.5v-3h-0.5v0.7c0,0.3,0,0.5-2.6,0.5h-1.6V23c0-0.1,0.3-0.1,0.6-0.1h1.3c0.9,0,1.9,0,2.6,0.2c0.3,0.1,0.5,0.2,0.5,0.4
		c0,0.1,0,0.3,0.2,0.3c0.2,0,0.2-0.1,0.2-0.3l0.2-1.3v-0.1h-8.4v0.6h1.1c0.4,0,0.4,0.3,0.4,2.3v7.6c0,0,0,0.1-0.3,0.1h-0.8v0.6h7.8
		l0,0c0.1-0.2,0.1-0.3,0.2-0.5c0.2-0.6,0.3-0.9,0.3-1C211.1,31.8,211.1,31.8,211,31.8z"/>
	<path fill="#034A6C" d="M80.1,33.2L80.1,33.2L80.1,33.2c1.1,0.5,2.7,0.7,4,0.7c1.6,0,3.1-0.5,4.3-1.3c1.3-0.9,1.9-2.3,1.9-3.8
		c0-3.1-2.4-4-4.7-4.9c-2-0.8-3.9-1.5-3.9-3.6c0-1.3,1-3.1,3.7-3.1c0.9,0,2.9,0.3,3.1,1.3c0,0.2,0.1,0.4,0.3,0.4
		c0.3,0,0.3-0.3,0.3-0.4v-1.8l0,0c-0.9-0.4-2.2-0.5-2.8-0.5c-1.5,0-2.9,0.5-4,1.3c-1.2,0.9-1.8,2.1-1.8,3.3c0,3.1,2.3,4,4.5,4.8
		c2.1,0.8,4,1.5,4,4c0,2.3-2.3,3.4-4.4,3.4c-1.1,0-3.8-0.5-4.1-1.9c0-0.2-0.1-0.5-0.4-0.5c-0.2,0-0.3,0.1-0.3,0.3
		c0,0.1,0.1,0.6,0.2,1.3C79.9,32.5,80,32.8,80.1,33.2z"/>
	<path fill="#034A6C" d="M96.7,33.9c1.7,0,3.4-0.8,4.5-2l0,0l-0.4-0.5l0,0c-0.9,0.9-1.9,1.3-3.3,1.3c-2.1,0-4.5-1.4-4.5-5.3
		c0.2-4.7,3.7-4.8,4.1-4.8c0.5,0,0.9,0.1,1.2,0.3c0.2,0.7,0.8,2.1,1.7,2.1c0.4,0,0.7-0.3,0.7-0.7c0-0.7-1.1-2.4-3.6-2.4
		c-1.4,0-2.8,0.6-3.8,1.6c-0.9,0.8-1.9,2.3-1.9,4.7C91.5,31.6,93.5,33.9,96.7,33.9z"/>
	<path fill="#034A6C" d="M104.3,19c0.6,0,1-0.5,1-1c0-0.6-0.5-1-1-1c-0.6,0-1,0.5-1,1C103.3,18.6,103.8,19,104.3,19z"/>
	<path fill="#034A6C" d="M103.7,25.2v7.3c0,0.2-0.2,0.2-0.4,0.2h-1v0.7h5.2v-0.7h-1.1c-0.9,0-1.1,0-1.1-3.9v-7l0,0
		c-0.3,0-0.7,0.1-1.2,0.1c-0.2,0-0.4,0.1-0.6,0.1s-0.3,0-0.5,0.1c-0.5,0.1-1.1,0.1-1.3,0.1l0,0v0.7h1.4
		C103.4,22.9,103.7,22.9,103.7,25.2z"/>
	<path fill="#034A6C" d="M112.9,33.9c1.9,0,3.5-0.7,4.8-2.1l0,0l-0.4-0.5l0,0c-1,0.9-2,1.3-3.3,1.3c-3.3,0-4.2-2.7-4.3-5
		c2.9-0.7,4.9-1.3,7.8-2.2h0.1v-0.1c-0.8-1.7-2.1-3.6-4.4-3.6c-1.6,0-2.9,0.7-3.8,2.1c-0.8,1.2-1.2,2.7-1.2,4.3
		C108,31,109.5,33.9,112.9,33.9z M109.6,26.8c0-2,1.2-4.3,2.9-4.3c1.4,0,2.4,1.5,2.8,2.7L109.6,26.8z"/>
	<path fill="#034A6C" d="M120.1,25.2v7.3c0,0.2-0.2,0.2-0.4,0.2h-1v0.7h5.2v-0.7h-1.1c-0.9,0-1.1,0-1.1-3.9v-4.1
		c1.1-0.9,2.3-1.7,3.9-1.7c1.4,0,2.1,0.9,2.1,2.6v6.8c0,0.2-0.2,0.2-0.4,0.2h-1v0.7h5.2v-0.7h-1.1c-0.9,0-1,0-1-3.9V25
		c0-1.2-0.4-3.3-3.2-3.3c-1.8,0-3.2,1-4.4,2v-2l0,0c-0.3,0-0.7,0.1-1.2,0.1c-0.2,0-0.4,0.1-0.7,0.1c-0.2,0-0.3,0-0.5,0.1
		c-0.5,0.1-1.1,0.1-1.3,0.1l0,0v0.7h1.4C119.9,22.9,120.1,22.9,120.1,25.2z"/>
	<path fill="#034A6C" d="M141,31.4c-0.9,0.9-1.9,1.3-3.3,1.3c-2.1,0-4.5-1.4-4.5-5.3c0.1-4.7,3.7-4.8,4.1-4.8c0.5,0,0.9,0.1,1.2,0.3
		c0.2,0.7,0.8,2.1,1.7,2.1c0.4,0,0.7-0.3,0.7-0.7c0-0.7-1.1-2.4-3.6-2.4c-1.4,0-2.8,0.6-3.8,1.6c-0.9,0.8-1.9,2.3-1.9,4.7
		c0,3.6,2.1,5.9,5.3,5.9c1.7,0,3.4-0.8,4.5-2l0,0L141,31.4L141,31.4z"/>
	<path fill="#034A6C" d="M146.9,33.9c1.9,0,3.5-0.7,4.8-2.1l0,0l-0.4-0.5l0,0c-1,0.9-2,1.3-3.3,1.3c-3.3,0-4.2-2.7-4.3-5
		c2.9-0.7,4.9-1.3,7.8-2.2h0.1v-0.1c-0.8-1.7-2.1-3.6-4.4-3.6c-1.6,0-2.9,0.7-3.8,2.1c-0.8,1.2-1.2,2.7-1.2,4.3
		C142.1,31,143.6,33.9,146.9,33.9z M143.7,26.8c0-2,1.2-4.3,2.9-4.3c1.4,0,2.4,1.5,2.8,2.7L143.7,26.8z"/>
	<path fill="#034A6C" d="M124.9,39.5c-0.6,0-1,0.5-1,1c0,0.6,0.5,1,1,1s1-0.5,1-1C125.9,39.9,125.4,39.5,124.9,39.5z"/>
	<path fill="#107D4C" d="M89.2,10.8C89,10.8,89,11,89,11.1l0,0c-0.1,1-2,1.6-3.3,1.6c-2.8,0-4.9-2.1-4.9-5c0-3.3,2.1-5.5,5.2-5.5
		c1.5,0,2.5,0.6,2.6,1v0.1c0,0.3,0,0.4,0.2,0.4s0.2-0.2,0.3-0.4l0.1-1l0,0l0,0c-1-0.6-2-0.7-2.9-0.7c-3.9,0-6.8,2.7-6.8,6.4
		c0,3.4,2.2,5.5,5.8,5.5c1.4,0,2.8-0.3,4-0.9l0,0l0,0c0.1-1,0.1-1.2,0.1-1.5C89.4,10.9,89.4,10.8,89.2,10.8z"/>
	<path fill="#107D4C" d="M98.5,11.4c-0.2,0-0.2,0.1-0.2,0.2c-0.3,0.8-2.9,0.8-3.8,0.8h-1.1c-0.6,0-0.7,0-0.7-2.4V7.2h2.2c2,0,2,0,2,0.4
		v0.7h0.5v-3h-0.5v0.8c0,0.3,0,0.5-2.6,0.5h-1.6V2.7c0-0.1,0.4-0.1,0.6-0.1h1.3c0.9,0,1.9,0,2.6,0.2c0.3,0.1,0.5,0.2,0.5,0.4
		c0,0.1,0,0.3,0.2,0.3s0.2-0.1,0.2-0.3l0.2-1.3H90v0.6h1.1c0.4,0,0.4,0.3,0.4,2.3v7.6c0,0,0,0.1-0.3,0.1h-0.8v0.6h7.8l0,0
		c0-0.2,0.1-0.3,0.1-0.4c0.2-0.6,0.3-1,0.3-1.1C98.7,11.4,98.6,11.4,98.5,11.4z"/>
	<path fill="#107D4C" d="M107.3,2.5h1c0.3,0,0.5,0,0.5,2.5v6l-7.3-9l0,0h-2.3v0.6h0.8c0.6,0,0.7,0.7,0.7,1.2v8.7c0,0.1,0,0.1-0.3,0.1
		h-0.8v0.6h3.3v-0.6h-1c-0.3,0-0.5,0-0.5-2.5V3.6l7.7,9.6c0,0,0.1,0.1,0.2,0.1c0.2,0,0.2-0.2,0.2-0.3V2.6c0,0,0-0.1,0.3-0.1h0.8V1.9
		h-3.3L107.3,2.5L107.3,2.5z"/>
	<path fill="#107D4C" d="M120.2,1.9h-8.5l0,0c-0.4,1.2-0.5,1.4-0.5,1.5c0,0.1,0.1,0.2,0.2,0.2s0.2-0.1,0.3-0.2l0,0
		c0.4-0.8,2.5-0.8,3.6-0.8c0,0,0,0,0.1,0l0,0v9.9c0,0,0,0.1-0.3,0.1h-1.3v0.6h4.7v-0.6h-1.3c-0.3,0-0.5,0-0.5-2.5V2.5l0,0
		c0,0,0,0,0.1,0c1.1,0,3.2,0,3.6,0.8c0.1,0.1,0.1,0.2,0.3,0.2c0.1,0,0.2-0.1,0.2-0.2C120.7,3.3,120.7,3.1,120.2,1.9L120.2,1.9z"/>
	<path fill="#107D4C" d="M129.6,11.4c-0.2,0-0.2,0.1-0.2,0.2c-0.3,0.8-2.9,0.8-3.8,0.8h-1.2c-0.6,0-0.7,0-0.7-2.4V7.2h2.2
		c2,0,2,0,2,0.4v0.7h0.5v-3h-0.5v0.8c0,0.3,0,0.5-2.6,0.5h-1.6V2.7c0-0.1,0.3-0.1,0.6-0.1h1.3c0.9,0,1.9,0,2.6,0.2
		c0.3,0.1,0.5,0.2,0.5,0.4c0,0.1,0,0.3,0.2,0.3c0.2,0,0.2-0.1,0.2-0.3l0.2-1.3V1.8H121v0.6h1.1c0.4,0,0.4,0.3,0.4,2.3v7.6
		c0,0,0,0.1-0.3,0.1h-0.8V13h7.8l0.1-0.4C129.5,11.9,129.6,11.5,129.6,11.4C129.7,11.4,129.7,11.4,129.6,11.4z"/>
	<path fill="#107D4C" d="M139.2,12.3c-0.6-0.4-1.8-2.1-3.5-4.5c1.8-0.4,2.8-1.5,2.8-3c0-1.4-1.1-2.9-3.5-2.9h-4.7v0.6h1.1
		c0.4,0,0.4,0.3,0.4,2.3v7.6c0,0,0,0.1-0.3,0.1h-0.8v0.6h3.9v-0.6h-1c-0.3,0-0.5,0-0.5-2.5V8.1h1.4c3.5,4.9,3.5,5,3.9,5h1.8v-0.6
		l0,0C139.6,12.5,139.4,12.5,139.2,12.3z M137.2,5.1c0,2.1-2.3,2.4-3.2,2.4h-0.9V2.7c0-0.1,0.3-0.1,0.6-0.1h0.8
		C137.1,2.6,137.2,4.7,137.2,5.1z"/>
	<path fill="#107D4C" d="M144.4,2.5h1.1c0.4,0,0.4,0.3,0.4,2.3v7.6c0,0,0,0.1-0.3,0.1h-0.8v0.6h3.9v-0.6h-1c-0.3,0-0.5,0-0.5-2.5V7.2
		h2.2c2,0,2,0,2,0.4v0.7h0.5v-3h-0.5v0.8c0,0.3,0,0.5-2.6,0.5h-1.6V2.7c0-0.1,0.3-0.1,0.6-0.1h1.3c0.9,0,1.9,0,2.6,0.2
		c0.3,0.1,0.5,0.2,0.5,0.4c0,0.1,0,0.3,0.2,0.3c0.2,0,0.2-0.1,0.2-0.3l0.2-1.3V1.8h-8.4V2.5z"/>
	<path fill="#107D4C" d="M165,7.3c0-3.6-2.1-5.8-5.5-5.8c-3.3,0-5.8,2.6-5.8,6.1c0,3.6,2.1,5.8,5.5,5.8C162.5,13.4,165,10.8,165,7.3z
		 M159.6,12.8c-3.4,0-4.6-2.9-4.6-5.5c0-3.8,2.3-5.1,4.2-5.1c3.4,0,4.6,2.9,4.6,5.5C163.8,11.4,161.5,12.8,159.6,12.8z"/>
	<path fill="#107D4C" d="M174.7,12.3c-0.6-0.5-1.8-2.1-3.5-4.5c1.8-0.4,2.8-1.5,2.8-3c0-1.4-1.1-2.9-3.5-2.9h-4.7v0.6h1.1
		c0.4,0,0.4,0.3,0.4,2.3v7.6c0,0,0,0.1-0.3,0.1h-0.8v0.6h3.9v-0.6h-1c-0.3,0-0.5,0-0.5-2.5V8.1h1.4c3.5,4.9,3.5,5,3.9,5h1.8v-0.6
		l0,0C175.1,12.5,175,12.5,174.7,12.3z M172.8,5.1c0,2.1-2.3,2.4-3.2,2.4h-0.9V2.7c0-0.1,0.3-0.1,0.6-0.1h0.8
		C172.7,2.6,172.8,4.7,172.8,5.1z"/>
	<path id="Fill-1" fill="#107D4C" d="M74.7,0.6H37.6l0,0H0.4c6.4,54.6,35.5,67.1,37.1,67.8l0,0l0,0l0,0l0,0c0.6-0.2,5-2.1,10.6-7.2
		c-6.8,1.1-13.9-2.9-13.8-3.2c-1.3-0.2-2.5-0.6-2.5-0.6c-5.5-1.6-15.7-5.1-11.8-17.1C22.4,33,27,29,31.2,25.9c0,0.1,0,0.3,0,0.4
		c0,2.1,0.4,4,1.1,6c0.6,1.4,1.1,2.4,1.9,3.9c2.4,4.5,4.2,5.4,3.1,13.4c4.7-3.4,9.8-8.8,10.8-11.6c0.4-0.9,0.8-2.3,1.1-3.3
		c0.5-1.8,0.6-2.5,0.7-4.7c0.1-2.3-0.9-4.8-1.7-7c-0.3-1-0.7-2-1.1-3c-0.7-1.6-1.5-3.2-2.3-4.7c-0.3-0.6-0.6-1.2-0.8-1.8
		c3.6-3.6,6.8-6.4,6.8-6.4h0.7h0.9c0.1,0,0.3,0.1,0.4,0.2c-0.7-1.4-2.2-2.9-5.3-1.4c-0.7,0.5-1.4,1-2.1,1.5c-0.6,0.4-1.9,1.8-2,3.6
		c-0.1,1.5,0.5,2.9,1.2,4.2c0.8,1.4,1.6,2.8,2.2,4.4c0.4,0.9,0.7,1.9,1,2.8c0.7,2,1.5,4.1,1.7,6.2c0.2,1.7-0.1,3.4-0.6,5
		c-0.3,0.9-0.5,1.8-0.9,2.7c-1.2,3-3.6,7.4-10.1,12c1.5-5-1.4-9.3-3.6-13.5c-0.7-1.4-1.2-2.3-1.8-3.6c-0.6-1.9-0.6-3.8-0.7-5.8
		c0.2-2.7,1-5.3,2.6-7.7c1.9-2.9,5.8-5.4,5.5-4.9c-0.2,0.3-0.3,0.8-0.5,1.2s-0.3,0.8-0.5,1.2c-0.3,0.8-0.6,1.6-0.8,2.4
		c-0.5,1.5-0.9,3.1-1,4.7c-0.3,2.5,0.2,4.9,0.8,7.2c0.2,0.7,0.4,1.4,0.6,2.1c0.3,1,0.6,1.9,0.9,2.9c0.3,1,0.7,2,0.8,3
		c0.2,0.9,0.4,1.8,0.3,2.7c0-0.2,0.2-0.5,0.3-0.7c0.1-0.3,0.1-0.6,0.1-0.9c0-0.6-0.2-1.2-0.2-1.8c-0.1-1.1-0.2-2.2-0.4-3.2
		c-0.2-1.1-0.5-2.3-0.7-3.4c-0.5-2.2-1.1-4.5-1.2-6.8c-0.1-1.4-0.1-2.8,0.2-4.1c0.2-1.6,0.7-3.3,1.4-5.2c0.4-1.1,1-2.3,1.5-3.3
		c0.4-0.7,0.8-1.5,1.3-2.2c-0.3-0.3-0.5-0.5-0.8-0.8c-0.3-0.3-1.1-0.8-2.1-0.7c-0.8,0.1-1.5,0.6-2.1,1c-0.7,0.5-1.3,1.1-2.1,1.6
		c-0.4,0.3-0.9,0.5-1.4,0.8c-1,0.6-2,1.2-3.1,1.5c-0.9,0.2-1.8,0.3-2.6,0.2c-0.5,0-1-0.1-1.5-0.2c-1.7-0.3-4.2-1.2-7.2-4.1
		c2.7,0.3,4.7-1.6,6.7-3.2c0.7-0.5,1.1-0.9,1.7-1.3c1.1-0.2,2.1-0.4,3.1-0.6c1.4-0.2,2.8,0,4.3,0.6c1.7,0.7,3.4,2.5,3.1,2.4
		c-0.2-0.1-0.5-0.1-0.7-0.1s-0.4-0.1-0.7-0.1c-0.4-0.1-0.9-0.2-1.3-0.2c-0.8-0.1-1.7-0.1-2.5-0.1c-1.4,0.1-2.6,0.5-3.7,1.1
		c-0.3,0.2-0.7,0.3-1,0.5c-0.5,0.3-1,0.5-1.5,0.7s-1,0.5-1.5,0.7c-0.4,0.2-0.9,0.4-1.4,0.4c0.1,0,0.3,0.1,0.4,0.1
		c0.2,0,0.3,0,0.5-0.1c0.3-0.1,0.6-0.2,0.9-0.3c0.5-0.2,1.1-0.3,1.6-0.5c0.6-0.2,1.1-0.5,1.7-0.7c1.1-0.5,2.2-1,3.4-1.3
		c0.7-0.2,1.4-0.3,2.2-0.3s1.8,0,2.8,0.2c0.6,0.1,1.3,0.3,1.9,0.5c0.7,0.2,1.5,0.5,2.1,0.9c0.4,0.3,0.8,0.8,1.1,1.2
		c0.3-0.3,0.6-0.7,0.9-1c1-0.9,2.4-1.6,3.5-2.2c0.1,0,0.2-0.1,0.2-0.1c1.5-0.6,4.5-1.3,5.4,2.4c3.5,1.8,5.7,8.4,5.3,19.8
		c-0.2,4.7,3.8,9.1,1.8,19C66.5,36.1,72.3,21.4,74.7,0.6"/>
</g>
</svg>
