<?xml version="1.0" encoding="UTF-8"?>
<svg width="161.09pt" height="28.344pt" version="1.1" viewBox="0 0 161.09 28.344" xmlns="http://www.w3.org/2000/svg" xmlns:xlink="http://www.w3.org/1999/xlink">
 <defs>
  <clipPath id="clip-12">
   <path d="m371 778h7.1797v6h-7.1797z"/>
  </clipPath>
  <clipPath id="clip-13">
   <path d="m359 758h19.18v18h-19.18z"/>
  </clipPath>
  <clipPath id="clip-14">
   <path d="m217.09 756.85h14.906v15.148h-14.906z"/>
  </clipPath>
  <clipPath id="clip-15">
   <path d="m231 756.85h15v15.148h-15z"/>
  </clipPath>
  <clipPath id="clip-16">
   <path d="m217.09 771h14.906v14.195h-14.906z"/>
  </clipPath>
  <clipPath id="clip-17">
   <path d="m231 771h15v14.195h-15z"/>
  </clipPath>
 </defs>
 <g transform="translate(-217.09 -756.85)">
  <g fill="#231f20">
   <path d="m263.52 778.55v1.7734h-0.25391c-0.12109-0.46485-0.33593-0.81641-0.66015-1.0625-0.31641-0.25-0.58203-0.3711-0.98828-0.3711-0.33594 0-0.64453 0.0898-0.92969 0.26954-0.28125 0.1875-0.49219 0.43359-0.62109 0.72656-0.16797 0.3789-0.2461 0.80078-0.2461 1.2695 0 0.45703 0.0586 0.875 0.1836 1.2539 0.11718 0.375 0.30859 0.65625 0.57031 0.85156 0.26172 0.1914 0.69922 0.28906 1.1172 0.28906 0.33593 0 0.65234-0.0703 0.93359-0.21094 0.28516-0.14453 0.58594-0.38672 0.89844-0.73047l0.21484 0.21094c-0.30078 0.32422-0.63281 0.63672-1.1641 0.88672-0.32422 0.14453-0.71485 0.20313-1.1484 0.20313-0.58203 0-1.1953-0.11329-1.6445-0.33204-0.44531-0.22265-0.79297-0.53515-1.0391-0.94531-0.2461-0.41406-0.36328-0.84765-0.36328-1.3125 0-0.48828 0.13671-0.95312 0.40234-1.3867 0.27344-0.4414 0.63672-0.77734 1.0977-1.0234 0.45703-0.23829 0.94921-0.35938 1.4648-0.35938 0.37891 0 0.68359 0.0781 1.1094 0.23438 0.2461 0.0898 0.39844 0.13281 0.46875 0.13281 0.082 0 0.16016-0.0273 0.22266-0.0859 0.0586-0.0586 0.0977-0.15625 0.12109-0.28125z"/>
   <path d="m266.21 781.18v1.6367c0 0.26172 0.0117 0.42578 0.043 0.48828 0.0312 0.0664 0.0898 0.125 0.17969 0.17188 0.0937 0.0508 0.20703 0.0742 0.36328 0.0742h0.17969v0.23437h-2.8359v-0.23437h0.18359c0.15625 0 0.28125-0.0234 0.375-0.0781 0.0703-0.0351 0.125-0.0976 0.16406-0.18359 0.0274-0.0547 0.043-0.21485 0.043-0.47266v-3.1836c0-0.26172-0.0156-0.42578-0.043-0.49219-0.0312-0.0664-0.0898-0.12109-0.18359-0.17187-0.0859-0.0508-0.20312-0.0742-0.35547-0.0742h-0.18359v-0.23438h2.8359v0.23438h-0.17969c-0.15625 0-0.28516 0.0234-0.37891 0.0781-0.0703 0.0391-0.125 0.0977-0.16406 0.17969-0.0312 0.0625-0.043 0.22266-0.043 0.48047v1.2148h1.9141v-1.2148c0-0.26172-0.0117-0.42578-0.043-0.49219-0.0273-0.0664-0.0898-0.12109-0.17968-0.17187-0.0937-0.0508-0.20703-0.0742-0.36719-0.0742h-0.17188v-0.23438h2.8281v0.23438h-0.17578c-0.15625 0-0.28906 0.0234-0.37891 0.0781-0.0703 0.0391-0.125 0.0977-0.16797 0.17969-0.0273 0.0625-0.043 0.22266-0.043 0.48047v3.1836c0 0.26172 0.0156 0.42578 0.043 0.48828 0.0312 0.0664 0.0899 0.125 0.1836 0.17188 0.0859 0.0508 0.21093 0.0742 0.36328 0.0742h0.17578v0.23437h-2.8281v-0.23437h0.17188c0.16406 0 0.28906-0.0234 0.38281-0.0781 0.0664-0.0351 0.125-0.0976 0.16406-0.18359 0.0312-0.0547 0.043-0.21485 0.043-0.47266v-1.6367z"/>
   <path d="m273.33 783.55v0.23437h-2.832v-0.23437h0.17969c0.16015 0 0.28515-0.0234 0.3789-0.0781 0.0703-0.0351 0.125-0.0937 0.16016-0.18359 0.0312-0.0586 0.043-0.21875 0.043-0.47266v-3.1836c0-0.26172-0.0117-0.42578-0.043-0.49219-0.0273-0.0664-0.0898-0.12109-0.17578-0.17187-0.0899-0.0508-0.21485-0.0742-0.36328-0.0742h-0.17969v-0.23438h2.832v0.23438h-0.17578c-0.16016 0-0.28516 0.0273-0.38281 0.082-0.0703 0.0352-0.125 0.0937-0.16407 0.17969-0.0312 0.0586-0.043 0.22265-0.043 0.47656v3.1836c0 0.26172 0.0117 0.42578 0.0469 0.48828 0.0312 0.0664 0.0898 0.125 0.17578 0.17188 0.0899 0.0508 0.21485 0.0742 0.36719 0.0742z"/>
   <path d="m275.56 778.66 2.6797 3.1797v-2.1094c0-0.30859-0.0469-0.51562-0.14453-0.62109-0.12891-0.14844-0.33984-0.22266-0.64063-0.21484v-0.23438h1.7891v0.23438c-0.23047 0.0234-0.38282 0.0664-0.46094 0.10547-0.0781 0.0469-0.14063 0.12109-0.18359 0.21484-0.0469 0.10156-0.0703 0.27344-0.0703 0.51562v4.1758h-0.28906l-3.5078-4.1758v3.0703c0 0.29297 0.0703 0.49218 0.21484 0.59375 0.14063 0.10937 0.30078 0.15625 0.48438 0.15625h0.1289v0.23437h-1.9219v-0.23437c0.30078-4e-3 0.50781-0.0586 0.62109-0.17578 0.1211-0.10938 0.17969-0.30079 0.17969-0.57422v-3.4297l-0.11719-0.13672c-0.11328-0.13281-0.21484-0.22266-0.30078-0.26562-0.0937-0.0469-0.21875-0.0664-0.38281-0.0742v-0.23438z"/>
   <path d="m282.52 782.19h-1.7891l-0.28906 0.54296c-0.0742 0.16797-0.11328 0.30469-0.11328 0.41407 0 0.14453 0.0625 0.25 0.17969 0.32031 0.0742 0.0391 0.25 0.0703 0.53515 0.0859v0.23437h-1.8047v-0.23437c0.19531-0.0274 0.35547-0.10157 0.48047-0.22657 0.125-0.1289 0.28125-0.38281 0.46484-0.77343l1.9375-3.9922h0.0781l1.9531 4.1016c0.1875 0.39844 0.33984 0.65235 0.45703 0.75781 0.0977 0.0781 0.22266 0.1211 0.38672 0.13282v0.23437h-2.6211v-0.23437h0.10937c0.20703 0 0.35547-0.0274 0.44141-0.0859 0.0547-0.0352 0.0859-0.0937 0.0859-0.17188 0-0.0391-0.0117-0.0859-0.0234-0.13671-8e-3 -0.0234-0.043-0.1211-0.11719-0.28125zm-0.13672-0.28125-0.7461-1.625-0.76171 1.625z"/>
   <path d="m342.36 778.66 2.668 3.1797v-2.1094c0-0.30859-0.043-0.51562-0.13672-0.62109-0.12891-0.14844-0.34375-0.22266-0.64453-0.21484v-0.23438h1.793v0.23438c-0.23438 0.0234-0.38672 0.0664-0.46485 0.10547-0.0781 0.0469-0.13672 0.12109-0.18359 0.21484-0.043 0.10156-0.0664 0.27344-0.0664 0.51562v4.1758h-0.29687l-3.5078-4.1758v3.0703c0 0.29297 0.0742 0.49218 0.21875 0.59375 0.14454 0.10937 0.30469 0.15625 0.48829 0.15625h0.13281v0.23437h-1.9297v-0.23437c0.30078-4e-3 0.50781-0.0586 0.62109-0.17578 0.1211-0.10938 0.1836-0.30079 0.1836-0.57422v-3.4297l-0.11719-0.13672c-0.11719-0.13281-0.21875-0.22266-0.30078-0.26562-0.0937-0.0469-0.22266-0.0664-0.38672-0.0742v-0.23438z"/>
   <path d="m287.65 783.79v-0.23437h0.18359c0.16016 0 0.27734-0.0234 0.35938-0.0703 0.0859-0.043 0.14843-0.10937 0.1875-0.1914 0.0273-0.0547 0.0391-0.21094 0.0391-0.47266v-3.1836c0-0.26172-0.0195-0.42578-0.0469-0.49219-0.0312-0.0664-0.0898-0.12109-0.17968-0.17187-0.082-0.0508-0.20704-0.0742-0.35938-0.0742h-0.18359v-0.23438h2.4297c0.64454 0 1.168 0.0859 1.5625 0.25391 0.48047 0.20312 0.84766 0.51172 1.0977 0.92187 0.25 0.41016 0.375 0.88282 0.375 1.4024 0 0.35937-0.0625 0.6914-0.1875 0.99609-0.11719 0.30078-0.27734 0.55469-0.47656 0.75391-0.19141 0.19531-0.41797 0.35156-0.67188 0.47265-0.2539 0.11719-0.5664 0.21094-0.92968 0.27735-0.16407 0.0312-0.42188 0.0469-0.76954 0.0469zm2.0703-4.7383v3.8086c0 0.21094 0.0117 0.34375 0.0312 0.39063 0.0195 0.0469 0.0586 0.0859 0.10937 0.10937 0.0703 0.0391 0.17579 0.0586 0.3125 0.0586 0.44532 0 0.78125-0.14844 1.0156-0.4336 0.32031-0.38671 0.53125-0.89843 0.53125-1.7109 0-0.65625-0.16016-1.0898-0.37891-1.4844-0.17187-0.30469-0.39453-0.51172-0.66797-0.625-0.1875-0.0781-0.50781-0.11328-0.95312-0.11328"/>
   <path d="m295.69 778.96v1.9453h0.10937c0.33985 0 0.49219-0.10156 0.64454-0.30469 0.15625-0.20703 0.2539-0.50781 0.29687-0.90625h0.25v2.6797h-0.25c-0.0273-0.28516-0.0977-0.52734-0.20312-0.71094-0.10157-0.1875-0.21875-0.3125-0.35547-0.3789-0.13282-0.0625-0.23438-0.0937-0.49219-0.0937v1.582c0 0.27734 0.0117 0.45312 0.0391 0.51562 0.0234 0.0664 0.0703 0.11328 0.14063 0.15235 0.0703 0.0391 0.17968 0.0664 0.33203 0.0664h0.23047c0.50781 0 0.91015-0.11328 1.2148-0.33203 0.30469-0.23047 0.52734-0.5625 0.65625-1.0156h0.25l-0.24609 1.6289h-4.6836v-0.23437h0.17969c0.15625 0 0.28125-0.0234 0.37891-0.0781 0.0664-0.0391 0.12109-0.0976 0.16015-0.18359 0.0274-0.0547 0.043-0.21485 0.043-0.47266v-3.1836c0-0.23438-8e-3 -0.375-0.0195-0.42969-0.0273-0.0859-0.0742-0.15625-0.14453-0.20312-0.10547-0.0703-0.24609-0.10547-0.41797-0.10547h-0.17969v-0.23438h4.5352v1.5195h-0.24609c-0.082-0.37109-0.1875-0.63672-0.33204-0.79687-0.13671-0.16797-0.33593-0.28125-0.58984-0.35547-0.14844-0.0469-0.43359-0.0703-0.84375-0.0703z"/>
   <path d="m337.08 778.96v1.9453h0.10547c0.34375 0 0.49609-0.10156 0.64844-0.30469 0.16015-0.20703 0.2539-0.50781 0.30078-0.90625h0.25v2.6797h-0.25c-0.0312-0.28516-0.10156-0.52734-0.20313-0.71094-0.10547-0.1875-0.21875-0.3125-0.35547-0.3789-0.13671-0.0625-0.23828-0.0937-0.49609-0.0937v1.582c0 0.27734 0.0156 0.45312 0.0391 0.51562 0.0234 0.0664 0.0703 0.11328 0.13672 0.15235 0.0742 0.0391 0.1836 0.0664 0.33985 0.0664h0.22656c0.5039 0 0.91015-0.11328 1.2188-0.33203 0.30469-0.23047 0.51953-0.5625 0.66015-1.0156h0.24219l-0.24219 1.6289h-4.6914v-0.23437h0.17969c0.16406 0 0.28515-0.0234 0.38671-0.0781 0.0664-0.0391 0.11719-0.0976 0.15235-0.18359 0.0312-0.0547 0.0508-0.21485 0.0508-0.47266v-3.1836c0-0.23438-0.0117-0.375-0.0195-0.42969-0.0312-0.0859-0.0781-0.15625-0.15235-0.20312-0.10156-0.0703-0.23828-0.10547-0.41796-0.10547h-0.17969v-0.23438h4.543v1.5195h-0.25c-0.0781-0.37109-0.1875-0.63672-0.32813-0.79687-0.13672-0.16797-0.33594-0.28125-0.59375-0.35547-0.14844-0.0469-0.42969-0.0703-0.83984-0.0703z"/>
   <path d="m307.06 778.96v1.9453h0.10938c0.34765 0 0.49609-0.10156 0.64844-0.30469 0.15234-0.20703 0.2539-0.50781 0.29687-0.90625h0.24609v2.6797h-0.24609c-0.0312-0.28516-0.10156-0.52734-0.20312-0.71094-0.10157-0.1875-0.22266-0.3125-0.35547-0.3789-0.13672-0.0625-0.23438-0.0937-0.4961-0.0937v1.582c0 0.27734 0.0156 0.45312 0.0391 0.51562 0.0273 0.0664 0.0742 0.11328 0.14062 0.15235 0.0703 0.0391 0.18359 0.0664 0.33594 0.0664h0.22656c0.50781 0 0.91406-0.11328 1.2188-0.33203 0.30469-0.23047 0.52734-0.5625 0.66016-1.0156h0.24218l-0.24218 1.6289h-4.6875v-0.23437h0.17968c0.15625 0 0.28516-0.0234 0.38282-0.0781 0.0703-0.0391 0.12109-0.0976 0.16015-0.18359 0.0274-0.0547 0.043-0.21485 0.043-0.47266v-3.1836c0-0.23438-8e-3 -0.375-0.0234-0.42969-0.0234-0.0859-0.0742-0.15625-0.14453-0.20312-0.10156-0.0703-0.24218-0.10547-0.41797-0.10547h-0.17968v-0.23438h4.5391v1.5195h-0.25c-0.0742-0.37109-0.18359-0.63672-0.32422-0.79687-0.14062-0.16797-0.34375-0.28125-0.59766-0.35547-0.14843-0.0469-0.42968-0.0703-0.83593-0.0703z"/>
   <path d="m304.74 778.66v0.23438c-0.19141 0.0351-0.36719 0.13281-0.52344 0.29687-0.11328 0.125-0.28125 0.42578-0.5 0.88672l-1.8711 3.8281h-0.12891l-1.8594-3.9805c-0.22656-0.4961-0.37109-0.78125-0.44921-0.86719-0.0781-0.0859-0.21875-0.14063-0.42579-0.16406v-0.23438h2.5938v0.23438h-0.0898c-0.23047 0-0.39453 0.0234-0.47656 0.082-0.0625 0.0391-0.0937 0.0977-0.0937 0.16797 0 0.0469 0.0117 0.10156 0.0351 0.16015 0.0195 0.0625 0.0937 0.23047 0.21875 0.4961l1.1524 2.457 1.0703-2.1797c0.125-0.27344 0.20703-0.45703 0.23438-0.54687 0.0312-0.0937 0.043-0.17188 0.043-0.23829 0-0.0781-0.0156-0.14453-0.0586-0.19921-0.0469-0.0586-0.10937-0.10157-0.19141-0.13282-0.11328-0.043-0.26562-0.0664-0.45703-0.0664v-0.23438z"/>
   <path d="m315.46 781.99-0.20703 1.7969h-4.8086v-0.23437h0.17578c0.15625 0 0.28907-0.0234 0.38282-0.0781 0.0664-0.0351 0.12109-0.0976 0.15625-0.18359 0.0351-0.0586 0.0469-0.21875 0.0469-0.47266v-3.1836c0-0.26172-0.0117-0.42578-0.0469-0.49219-0.0312-0.0664-0.0899-0.12109-0.17188-0.17187-0.0937-0.0508-0.21484-0.0742-0.36719-0.0742h-0.17578v-0.23438h2.8906v0.23438h-0.23828c-0.15625 0-0.28125 0.0273-0.38282 0.0781-0.0664 0.0391-0.12109 0.0977-0.16406 0.1836-0.0273 0.0586-0.043 0.22265-0.043 0.47656v3.1719c0 0.25782 0.0195 0.42578 0.0508 0.5 0.0274 0.0703 0.0937 0.125 0.1875 0.15625 0.0664 0.0234 0.13282 0.0352 0.38282 0.0352h0.45312c0.28906 0 0.52734-0.0469 0.72266-0.14453 0.1914-0.0898 0.35547-0.2461 0.49218-0.44922 0.14454-0.20703 0.27344-0.51563 0.40235-0.91406z"/>
   <path d="m318.91 778.59c0.86328-0.0273 1.5664 0.21094 2.1055 0.71484 0.53906 0.50391 0.8125 1.1406 0.8125 1.8984 0 0.65234-0.20703 1.2227-0.60937 1.7188-0.53125 0.65234-1.2812 0.98438-2.2578 0.98438-0.97265 0-1.7266-0.31641-2.2578-0.94141-0.42578-0.49609-0.63281-1.0781-0.63281-1.7539 0-0.76562 0.26953-1.3984 0.82031-1.9062 0.54297-0.5039 1.2227-0.74218 2.0195-0.71484m0.0508 0.24219c-0.49609 0-0.875 0.23828-1.1328 0.71875-0.20703 0.39453-0.31641 0.95703-0.31641 1.6953 0 0.87109 0.16407 1.5156 0.48829 1.9336 0.22656 0.29297 0.54296 0.44141 0.95312 0.44141 0.26953 0 0.5-0.0664 0.68359-0.19141 0.23438-0.16406 0.41797-0.41797 0.55079-0.77343 0.1289-0.35157 0.19531-0.8125 0.19531-1.3828 0-0.67968-0.0664-1.1836-0.20313-1.5195-0.13281-0.33984-0.30078-0.57812-0.5039-0.71094-0.21094-0.14062-0.44922-0.21093-0.71485-0.21093"/>
   <path d="m324.33 781.47v1.3281c0 0.27735 0.0156 0.44922 0.0547 0.52344 0.0351 0.0742 0.10156 0.12891 0.1914 0.17188 0.0937 0.043 0.25782 0.0625 0.50391 0.0625v0.23437h-2.7539v-0.23437c0.25 0 0.42579-0.0234 0.50782-0.0664 0.0937-0.0391 0.15234-0.10156 0.1914-0.16797 0.0352-0.0742 0.0547-0.24609 0.0547-0.52344v-3.1367c0-0.28125-0.0195-0.45313-0.0547-0.52735-0.0391-0.0703-0.0976-0.1289-0.1914-0.16797-0.0899-0.043-0.25782-0.0664-0.50782-0.0664v-0.23047h2.3672c0.76953 0 1.332 0.1289 1.6719 0.39453 0.33984 0.26172 0.50781 0.58594 0.50781 0.98047 0 0.33594-0.10938 0.61328-0.32813 0.85156-0.21875 0.23438-0.51953 0.40234-0.90234 0.48438-0.26172 0.0625-0.69141 0.0898-1.3125 0.0898m0-2.5078v2.2148c0.0898 4e-3 0.15625 8e-3 0.19922 8e-3 0.32422 0 0.57812-0.0898 0.75-0.27343 0.17969-0.1836 0.26562-0.46875 0.26562-0.85157 0-0.3789-0.0859-0.66015-0.26562-0.83203-0.17188-0.17578-0.43359-0.26562-0.78125-0.26562z"/>
   <path d="m331.03 782.04 1.4688-3.3789h2.207v0.23438h-0.17578c-0.16015 0-0.28515 0.0273-0.38281 0.082-0.0664 0.0352-0.12109 0.0937-0.16016 0.17578-0.0312 0.0625-0.043 0.21875-0.043 0.47266v3.1914c0 0.26172 0.0117 0.42578 0.043 0.48828 0.0312 0.0664 0.0899 0.125 0.17969 0.17188 0.0899 0.0547 0.20703 0.0742 0.36328 0.0742h0.17578v0.23437h-2.832v-0.23437h0.17969c0.15625 0 0.28906-0.0234 0.38281-0.0781 0.0664-0.0351 0.11719-0.0937 0.16016-0.18359 0.0234-0.0547 0.043-0.21875 0.043-0.47266v-3.7031l-2.082 4.6719h-0.0937l-2.1133-4.6406v3.5156c0 0.25391 8e-3 0.40625 0.0234 0.46485 0.0352 0.1289 0.10938 0.22656 0.22657 0.30859 0.11328 0.082 0.29296 0.11719 0.54687 0.11719v0.23437h-1.8594v-0.23437h0.0547c0.125 0 0.23438-0.0156 0.33985-0.0547 0.10156-0.0391 0.17968-0.0898 0.23437-0.15625 0.0547-0.0625 0.0977-0.15625 0.125-0.27734 4e-3 -0.0274 4e-3 -0.15625 4e-3 -0.38282v-3.0547c0-0.26172-0.0117-0.42188-0.043-0.48829-0.0273-0.0625-0.0859-0.11718-0.17969-0.16406-0.0898-0.0547-0.21094-0.0781-0.35937-0.0781h-0.17578v-0.23438h2.2147z"/>
   <path d="m351.39 778.66v1.3906h-0.14062c-0.0898-0.32032-0.18359-0.55078-0.28516-0.69141-0.10937-0.14062-0.24609-0.25-0.42578-0.33203-0.10156-0.0469-0.28125-0.0703-0.53515-0.0703h-0.40625v3.8594c0 0.25781 0.0195 0.42578 0.0469 0.48828 0.0312 0.0664 0.0898 0.125 0.18359 0.17188 0.0899 0.0508 0.21094 0.0742 0.36329 0.0742h0.17968v0.23437h-2.8398v-0.23437h0.17969c0.16015 0 0.28906-0.0234 0.3789-0.0781 0.0703-0.0351 0.12891-0.0976 0.16407-0.18359 0.0351-0.0586 0.0469-0.21485 0.0469-0.47266v-3.8594h-0.39062c-0.36719 0-0.62891 0.0703-0.79688 0.21875-0.23047 0.20703-0.37891 0.49609-0.44141 0.875h-0.14843v-1.3906z"/>
   <path d="m367.85 778.66 2.6719 3.1797v-2.1094c0-0.30859-0.043-0.51562-0.13281-0.62109-0.13281-0.14844-0.35156-0.22266-0.64844-0.21484v-0.23438h1.793v0.23438c-0.23047 0.0234-0.38281 0.0664-0.46094 0.10547-0.082 0.0469-0.14062 0.12109-0.18359 0.21484-0.0469 0.10156-0.0703 0.27344-0.0703 0.51562v4.1758h-0.29688l-3.5039-4.1758v3.0703c0 0.29297 0.0742 0.49218 0.21094 0.59375 0.14453 0.10937 0.3125 0.15625 0.49219 0.15625h0.12891v0.23437h-1.9258v-0.23437c0.30079-4e-3 0.51172-0.0586 0.625-0.17578 0.11719-0.10938 0.17579-0.30079 0.17579-0.57422v-3.4297l-0.11719-0.13672c-0.11328-0.13281-0.21094-0.22266-0.30078-0.26562-0.0859-0.0469-0.21485-0.0664-0.38282-0.0742v-0.23438z"/>
   <path d="m363.24 782.19h-1.7891l-0.29296 0.54296c-0.0742 0.16797-0.10938 0.30469-0.10938 0.41407 0 0.14453 0.0586 0.25 0.17969 0.32031 0.0742 0.0391 0.25 0.0703 0.53125 0.0859v0.23437h-1.8008v-0.23437c0.19531-0.0274 0.35156-0.10157 0.47656-0.22657 0.12891-0.1289 0.28125-0.38281 0.46484-0.77343l1.9414-3.9922h0.0742l1.9531 4.1016c0.1875 0.39844 0.34375 0.65235 0.46094 0.75781 0.0898 0.0781 0.21875 0.1211 0.38672 0.13282v0.23437h-2.625v-0.23437h0.10937c0.20704 0 0.35938-0.0274 0.44141-0.0859 0.0586-0.0352 0.0898-0.0937 0.0898-0.17188 0-0.0391-0.0117-0.0859-0.0273-0.13671-4e-3 -0.0234-0.043-0.1211-0.11719-0.28125zm-0.14063-0.28125-0.74219-1.625-0.76562 1.625z"/>
   <path d="m358.18 781.07c0.51563 0.10937 0.875 0.25 1.082 0.41015 0.30078 0.22657 0.44922 0.52735 0.44922 0.89063 0 0.38672-0.16406 0.70312-0.49219 0.95703-0.40234 0.30469-0.98828 0.45703-1.7539 0.45703h-2.7578v-0.23437c0.25 0 0.42579-0.0234 0.51172-0.0664 0.0899-0.0391 0.15235-0.10547 0.1875-0.16797 0.0352-0.0703 0.0547-0.24609 0.0547-0.52344v-3.1406c0-0.27344-0.0195-0.44922-0.0547-0.51953-0.0351-0.0703-0.0976-0.13281-0.1875-0.17188-0.0937-0.043-0.26172-0.0664-0.51172-0.0664v-0.23438h2.5977c0.62109 0 1.0625 0.0547 1.3203 0.15625 0.25782 0.10547 0.46485 0.26172 0.61328 0.46875 0.14844 0.21094 0.22266 0.42969 0.22266 0.66797 0 0.24219-0.0937 0.46484-0.28125 0.66016-0.19141 0.1875-0.52344 0.33984-1 0.45703m-1.4531 0.1875v1.6445l-8e-3 0.19141c0 0.13281 0.0391 0.23828 0.11328 0.30468 0.0703 0.0703 0.17969 0.10938 0.32422 0.10938 0.21485 0 0.40625-0.0469 0.58985-0.13672 0.17968-0.0898 0.3164-0.21875 0.41406-0.39063 0.0937-0.16796 0.14453-0.35937 0.14453-0.5664 0-0.23828-0.0586-0.45703-0.17969-0.64453-0.11718-0.19141-0.27734-0.32422-0.48047-0.39453-0.20703-0.0781-0.51171-0.1211-0.91796-0.11719m0-0.28906c0.375 0 0.65625-0.043 0.83593-0.1211 0.17969-0.082 0.31641-0.19531 0.41016-0.34375 0.0977-0.14453 0.14453-0.32812 0.14453-0.55469 0-0.22656-0.0469-0.41406-0.14062-0.55859-0.0937-0.14844-0.23047-0.25391-0.40625-0.32812-0.17579-0.0742-0.46094-0.11719-0.84375-0.11329z"/>
  </g>
  <g clip-path="url(#clip-12)">
   <path d="m375.13 780.72 1.9062 2.1602c0.26953 0.31641 0.5 0.4375 0.69531 0.55469 0.13672 0.082 0.29297 0.11719 0.44532 0.11719v0.23437h-2.8203v-0.23437c0.17969-0.0156 0.29297-0.0391 0.34766-0.0781 0.0547-0.0351 0.0742-0.082 0.0742-0.14062 0-0.10938-0.11719-0.21094-0.36328-0.50391l-1.2461-1.3867-0.19921 0.16016v1.2148c0 0.26563 0.0156 0.4375 0.0508 0.5 0.0273 0.0625 0.0898 0.1211 0.17968 0.16406 0.0937 0.0469 0.23829 0.0703 0.4375 0.0703v0.23437h-2.7344v-0.23437h0.17969c0.15625 0 0.28515-0.0234 0.3789-0.0781 0.0703-0.0351 0.11719-0.0937 0.16016-0.18359 0.0312-0.0547 0.043-0.21875 0.043-0.47266v-3.1836c0-0.26172-0.0117-0.42578-0.043-0.49219-0.0273-0.0664-0.0898-0.12109-0.17969-0.17187-0.0898-0.0508-0.20703-0.0742-0.35937-0.0742h-0.17969v-0.23438h2.6992v0.23438c-0.1836 0-0.32422 0.0234-0.42578 0.0781-0.0625 0.0312-0.11719 0.0937-0.15625 0.17578-0.0352 0.0625-0.0508 0.22266-0.0508 0.48438v1.5l2.0117-1.5391c0.28125-0.21094 0.41797-0.28907 0.41797-0.41797 0-0.0977-0.0625-0.17188-0.17187-0.22657-0.0586-0.0312-0.19922-0.0469-0.4336-0.0547v-0.23438h2.1133v0.23438c-0.1875 0.0117-0.33594 0.0469-0.44532 0.0976-0.10547 0.0547-0.35547 0.22266-0.74609 0.52344z" fill="#231f20"/>
  </g>
  <g fill="#231f20">
   <path d="m313.59 758.38c0.34375-0.26562 0.41406-0.20312 0.66797 0 0.23828 0.1836 1.6836 1.3398 1.6836 1.3398v0.30468l-3.0352-0.0156c-0.51953 0-0.51562 0.11719-0.51562 0.71094v4.7734h1.4961c0.3711-0.30078 1.0391-0.86328 1.2383-1.0156 0.21094-0.16016 0.28516-0.25 0.60938 0.0117 0.33203 0.26172 1.6719 1.3047 1.6719 1.3047v0.46875h-5.0156v8.7109c0 0.70313-2.5664 0.89844-2.5664 0.44531v-9.1562h-4.2969v1.1758c0 7.125-7.043 7.8359-7.043 7.8359l-0.10156-0.21875s4.6914-1.4258 4.6914-7.6914v-1.1016h-4.6914v-0.6875h4.6914v-5.5508h-3.25v-0.62109h12.508c0.21094-0.20313 0.875-0.72266 1.2578-1.0234m-3.7656 1.6445h-3.4062c-1.0117 0-0.89062 0.0156-0.89062 1.0391v4.5117h4.2969z"/>
   <path d="m275.81 759.67c0.37891 0.30469 0.3125 0.30078-0.21484 0.80078-0.15625 0.14453-0.31641 0.27344-0.31641 0.45312v13.992c0 0.57422-2.7578 1.1211-2.7578 0.39844v-1.5273h-11.598v1.2109c0 0.52735-2.5898 0.99219-2.5898 0.36719v-16.387c0-0.40625-0.0312-0.70703 0.32422-0.70703 0.37109 0 2.5039 1.0117 2.8398 1.0117h10.762c0.15625 0 0.51562-0.58203 0.84375-1.0039 0.3125-0.39843 0.32812-0.34375 1.2578 0.29297 0.35547 0.24219 1.1133 0.82813 1.4492 1.0977m-13.664 0.23047c-0.89453 0-1.2227 0.27343-1.2227 0.99609v9.793h4.3008v-4.3047h-3.0781v-0.54297h3.0781v-3.1641h-3.5664v-0.61328h6.9844c0.32031-0.21875 1.2031-0.82422 1.3789-0.94531 0.20312-0.14063 0.24609-0.10547 0.39453 4e-3 0.15234 0.11328 1.5391 1.1641 1.5391 1.1641v0.39062h-4.375v3.0898h0.90234c0.30079-0.20312 1.0195-0.67578 1.2344-0.8164 0.27344-0.17969 0.28906-0.19531 0.51953-4e-3 0.24609 0.19922 0.89453 0.71485 1.3125 1.0625v0.375h-3.9688v0.67969c3.6875-0.32031 4.1445 1.9609 3.5508 2.6094 0.46485 0.32813 1.1914 0.85157 1.3906 0.99219v-10.766zm-1.2227 13.344h11.598v-2.0156h-11.598zm6.6562-5.7227v3.168h1.5078c0.30078-0.23047 0.74219-0.62109 0.74219-0.62109s-0.6875 0.1289-1.0977-1.2578c-0.21875-0.71093-0.61718-1.0859-1.1523-1.2891"/>
   <path d="m330.32 759.7c0.72656 0.45704 1.1211 1.0117 1.2188 1.5703 0.0586 0.72656 0.55078 1.3555 1.2461 1.4102 0.80469-4e-3 1.3047-0.83984 1.3047-1.5625 0-1.0703-1.3633-1.9531-3.7774-1.6836-0.16797 0.0195-0.16015 0.16016 8e-3 0.26562"/>
   <path d="m337.15 773.35s-4.0156-0.57422-5.8906-1.7891c0.37891-0.3789 1.4531-1.3359 3.0703-4.2812 0.0508-0.0937 0.16407-0.27734 0.50782-0.38281 0.86328-0.25781-0.1211-0.88672-1.1406-1.3711-1.543-0.73438-1.375-0.8086-1.7383-0.10938-0.12109 0.23438-0.24609 0.55078-0.48437 0.55078h-4.1758c0.42579-1.0156 0.5-1.4297 0.71094-2.1094h9.0039c0-0.3086 8e-3 -0.38281 8e-3 -0.38281s-1.2539-1.1719-1.6172-1.5078c-0.1875-0.17578-0.35937-0.14843-0.55078 0.0234-0.25781 0.23828-0.94922 0.89453-1.3672 1.3008h-5.332c0.33594-1.082 1.1875-3.9219 1.5234-4.2344 0.32422-0.30469 0.28906-0.57422-1.0938-0.875-1.5039-0.4375-1.9336-0.23438-1.9336 0.65625 0 0.27343-0.6211 3.6055-0.83985 4.3789h-2.2656c1.0938-2.9805 1.4102-2.6016 1.4102-2.8125 0-0.4414-2.1055-1.2578-2.5742-1.25-0.16797 4e-3 -0.22266 0.25391-0.40625 0.8711-0.84766 2.8711-1.4844 3.3672-1.6836 3.6328-0.24609 0.32031 0.91797 0.76953 2.3672 1.1133 0.33984 0.082 0.58203-0.91406 0.76953-0.91406h2.2461c-1.7969 6.7578-6.3008 10.242-6.3008 10.242l0.125 0.1914s3.7734-1.7226 6.4727-5.5742c0.78906 1.9492 1.9883 3.0234 1.9648 3.0469-2.7695 2.8359-7.5625 3.6875-7.5625 3.6875l0.0937 0.21484s5.6289-0.36719 8.7578-2.5c2.7383 1.8633 5.0469 2.3125 5.9531 2.2266 0.16797-0.0273 0.15625-0.52734 0.64453-1.0703 0.48047-0.53515 1.3281-0.73437 1.3281-0.73437zm-7.9024-2.7266c-0.22265-0.0469-2.4023-1.7266-2.7656-2.7617 0.0156-0.0312 0.55469-1.2305 0.5664-1.2617h4.5312c-0.625 1.9961-1.8359 3.5117-2.332 4.0234"/>
   <path d="m347.89 761.48v-2.1719c0-0.24609 0.0469-0.39844 0.14844-0.44922 0.0508-0.0508 0.22265-0.0273 0.53125 0.0742 0.60547 0.20312 1.1094 0.375 1.5156 0.52734h3.1758c0.11719 0 0.76172-1.0039 1-1.0508 0.11719-0.0234 1.0039 0.59766 2.0703 1.4844 0.21484 0.17578 0.082 0.20703-0.33985 0.60937-0.11718 0.10938-0.23047 0.1875-0.23047 0.30469v5.5898c0 0.35157-0.32812 0.42969-0.73437 0.57813 0.54687 0.32031 1.9531 1.082 1.9766 1.168 0.0352 0.0547 0.0234 0.21875-0.082 0.26562-0.0703 0.0703-1.1367 0.28906-1.1367 0.28906s-1.8906 1.0078-2.4883 1.3242c1.3867 2.5352 4.9414 3.3203 4.9414 3.3203v0.23828s-1.3672 0.29297-1.9062 0.98828c-0.5586 0.72265-0.33594 0.6914-0.57032 0.625-1.1523-0.35547-2.8359-2.1172-3.4102-3.3398-0.41797 0.36329-2.5156 2.6016-2.5156 2.6016s-0.91797 1.2031-1.0586 1.2031c-0.16406 0-1.4844-1.9726-1.4844-2.1328 0-0.0898 0.39454-0.25 0.61329-0.39453 0.0664-0.0469-0.0156-4.6367-0.0156-4.6367h-3.4102v3.8359c0.49219-0.20313 2.7266-1.3164 2.7266-1.3164l0.0703 0.25391-2.7617 3.1719s-0.96484 1.207-1.0781 1.207c-0.21875 0-1.6562-1.9336-1.6562-2.0742 0-0.15625 0.75-0.44531 0.75-0.625v-4.4531h-2.8711v-0.60938h2.8711v-3.0039h-0.77344c-0.35938 0.5-1.0664 1.25-1.8672 2.1016-0.0195 0.0234-0.0859 0.0898-0.0859 0.0898l-0.15234-0.11328s0.0742-0.125 0.12109-0.21484c1.1055-2.3594 1.8555-5.0273 2.0586-7.8867 0-0.60156 0.33593-0.70703 0.9414-0.55078 1.5625 0.19922 2.2617 0.30078 2.1641 0.55078 0 0.10156-0.0781 0.20313-0.22657 0.30078-0.20312 0.14844-0.33203 0.27735-0.3789 0.375-0.10547 0.25391-0.60157 1.4922-0.69532 1.7266h1.375c0.19141-0.21093 0.87891-1.0039 1.0078-1.1523 0.13672-0.16016 0.21484-0.16406 0.38281-0.0117 0.16797 0.15625 1.4883 1.3828 1.4883 1.3828m0 6.625v-6.2344h-4.5469c-0.50391 1.1523-0.82032 1.7969-1.2227 2.4023h2.3594c0.38672-0.33984 0.97657-0.85156 1.1133-0.97656 0.1289-0.11719 0.1875-0.125 0.34375 4e-3 0.16015 0.13281 1.4726 1.2226 1.4726 1.2226v0.35938h-2.3984c-0.60156 0-0.53125-0.0312-0.53125 0.75v2.2539h0.53125s0.69922-0.71484 0.90235-0.91796c0.22656-0.23438 0.22656-0.23047 0.52734 0 0.25 0.19531 1.4492 1.1367 1.4492 1.1367m5.6016-8.0391h-2.6523c-0.69922 0-1.0039 0.15235-1.0039 0.67969v1.7188h3.6562zm-3.6562 5.4883h3.6562v-2.5547h-3.6562zm1.5352 0.60547h-1.5352v6.3984l2.3711-1.0664c-0.5586-1.5039-0.78516-3.1719-0.83594-5.332m2.1211 0h-1.5938c0.20313 1.2031 0.53125 2.2344 0.98438 3.0859 0.66015-0.70313 1.1016-1.4844 1.5156-2.1094-0.61328 0.10157-0.90625 0.13672-0.90625-0.3164z"/>
  </g>
  <g clip-path="url(#clip-13)">
   <path d="m365.95 761.93c1.0625 0.5586 1.668 0.9961 1.4922 1.1641-0.0391 0.0391-0.0586 0.0586-0.16797 0.0742-0.32422 0.0508-0.62891 0.3125-0.94531 0.64844-0.31641 0.29297-0.71875 0.72266-1.1914 1.3008 0.37891 0.21094 0.45703 0.28907 0.25 0.4336-0.16015 0.14453-0.23437 0.26172-0.23437 0.35937v8.5938c0 0.53125-2.1797 1.1133-2.1797 0.58203l0.0352-8.0938c-0.94922 0.67578-1.7617 1.2266-2.5586 1.6602-0.1875 0.11719-0.4414 0.23047-0.4414 0.23047l-0.1211-0.16016s0.45703-0.53906 0.96485-1.0781c1.1562-1.2539 2.4336-3.0352 3.8047-5.3438 0.26563-0.6211 0.67188-0.69922 1.293-0.3711m-0.43359-3.25c1.0039 0.72266 1.5 1.2305 1.3476 1.3711-0.12109 0.11328-0.19531 0.043-0.39453 0.0703-0.4375 0.0625-0.74609 0.22266-0.95312 0.36719-0.16016 0.0937-0.42578 0.28515-0.79688 0.57812-1.375 0.96094-2.6289 1.5703-3.793 2.2461-0.33593 0.19531-0.76171 0.39453-0.76171 0.39453l-0.0859-0.16016s2.7852-2.9883 4.0078-4.5781c0.15625-0.19141 0.26563-0.33594 0.31641-0.4336 0.21093-0.33203 0.24609-0.47656 1.1133 0.14453m10.449 4.7422c0.16406-0.15625 0.23828-0.15625 0.42968 0 0.21094 0.16406 1.7891 1.4102 1.7891 1.4102v0.38281h-2.9727c-0.69922 0-0.66406-0.0469-0.66406 0.60547v7.5273c0 1.7695-1.2617 2.3164-2.4883 2.3164-1.2227 0-0.78125-0.1211-0.78125-0.60156 0-1.1797-1.4766-1.4727-1.6719-1.4727v-0.24609s1.7539-4e-3 2.0625-4e-3c0.42188 0 0.4961-0.41406 0.4961-0.92188v-7.2031h-5.625v-0.58203h8.0117c0.1875-0.17969 1.3516-1.1562 1.4141-1.2109m-0.85547-4.5195c0.10937-0.0898 0.1875-0.12109 0.32422 0 0.13672 0.11328 1.5234 1.3047 1.5234 1.3047v0.37109h-9.3789v-0.58192h6.1797s1.2305-0.99609 1.3516-1.0938" fill="#231f20"/>
  </g>
  <path d="m287.47 760.46h5.0703c0.19922 0 0.76563-0.99609 0.95703-0.99609 0.52735 0 2.5508 1.8281 2.5117 2.0977-0.0234 0.15625-1.2617 0.24218-1.2617 0.24218s-1.8672 0.25391-2.4219 0.41016c0.19922 0.16016 1.2539 1.0078 1.2539 1.0078v0.29297h-4.7578c-0.10547 0-0.26172 0.0742-0.46484 0.22266-0.6211 0.44922-1.3477 0.97656-2.4883 1.6719 0.77734 0.4961 1.0117 0.65625 2.0312 1.6172 0.74609-0.52344 2.2109-1.582 2.918-2.1445 0.23437-0.1875 0.64062-0.75391 0.94531-0.75391 0.32812 0 1.9258 1.1602 2.2305 1.4531 0.0742 0.0664 0.043 0.3125-0.0274 0.3789-0.13281 0.12891-1.4883 0.3125-1.4883 0.3125s-2.0781 0.61328-2.9726 1.0195c2.5039 3.8359 7.4414 4.6172 7.4414 4.6172v0.27735s-0.97656 0.082-1.5976 0.58593c-0.57422 0.46485-0.80079 1.0859-0.86329 1.0664-2.3008-0.70703-4.3203-2.5508-5.6562-6.2734-0.28515 0.13281-0.34765 0.16797-0.49218 0.23438 0.6875 1.3984 0.87109 3.0234 0.67578 4.4531-0.3125 2.293-1.8555 3.4062-3.8789 3.4062-0.66015 0-0.38672-0.3125-0.38672-0.625 0-0.85937-1.2852-1.1484-1.2852-1.1484v-0.21875s2.5 0.16016 2.9648-0.99218c0.26172-0.64453 0.44531-1.7266 0.34375-2.4727-0.72656 0.79297-3.9531 2.668-7.3047 3.5195-0.53906 0.13672-1.207 0.25391-1.207 0.25391l-0.15625-0.19531s0.0781-0.0352 0.1211-0.0586c3.8359-1.707 6.3516-3.5312 7.9336-5.7734 0.0234-0.0273-8e-3 -0.10937-0.0664-0.19531-3.125 1.957-7.7422 3.1719-7.7422 3.1719l-0.0781-0.13282s0.043-0.0234 0.0586-0.0352c2.8555-1.5156 5.4102-3.1094 6.6758-4.5742 0.0351-0.0352-0.20313-0.26563-0.27344-0.23438-0.98047 0.4961-2.2383 0.96875-3.7891 1.3633-1.125 0.24609-2.3086 0.41015-2.3086 0.41015l-0.0703-0.1914s0.15234-0.043 0.20703-0.0703c3.207-1.3867 5.4844-2.7031 6.4727-3.9453h-4.0664v-0.51172h8.7773c0.19922-0.16406 1.3047-1.1602 1.4375-1.2695 0.12891-0.10156 0.20704-0.10547 0.35547 0 0.11719 0.082 0.23828 0.17969 0.26563 0.20703 0.51953-0.91406 0.57812-0.8789 0.32422-0.8789h-11.031c0.0937 0.97656-0.16797 1.6172-0.59375 2.0742-0.51172 0.54297-2.1602 0.61719-2.3203-0.39062-0.0664-0.39063 0.2461-0.84375 0.76563-1.2383 0.72266-0.55078 1.1055-1.207 1.1055-1.9414 0-0.59765 0.75 0.29688 0.92187 0.89453h4.3633c-0.10937-0.0976-0.14843-0.28125-0.13281-0.58203 0.0352-0.64062-0.36719-1.3086-1.0352-1.6523-0.47266-0.25 0.90234-0.40235 1.8008-0.2461 1.0508 0.1875 1.7734 0.98047 1.7734 1.5508 0 0.35937-0.24218 0.76171-0.48437 0.92968" fill="#231f20"/>
  <g clip-path="url(#clip-14)">
   <path d="m218.94 756.85c-1.0156 0-1.8438 0.82031-1.8438 1.8359v12.34h14.242v-14.176z" fill="#af7c42"/>
  </g>
  <g clip-path="url(#clip-15)">
   <path d="m243.73 756.85c1.0195 0 1.8438 0.82031 1.8438 1.8359v12.34h-14.238v-14.176z" fill="#da2225"/>
  </g>
  <g clip-path="url(#clip-16)">
   <path d="m218.94 785.2c-1.0156 0-1.8438-0.8164-1.8438-1.832v-12.34h14.242v14.172z" fill="#da2225"/>
  </g>
  <g clip-path="url(#clip-17)">
   <path d="m243.73 785.2c1.0195 0 1.8438-0.8164 1.8438-1.832v-12.34h-14.238v14.172z" fill="#af7c42"/>
  </g>
  <path d="m236.2 765.54c0.64844 0 0.64453 0.64062 0.64453 0.64062v9.6758s0 0.64844-0.64453 0.64844h-9.7226c-0.64454 0-0.64454-0.64844-0.64454-0.64844v-9.6758s0-0.64062 0.64454-0.64062z" fill="#94979b"/>
  <path d="m226.48 765.55h9.7031c0.64453 0 0.64453 0.64062 0.64453 0.64062v9.6562s-4e-3 0.64063-0.64844 0.64063h-9.6992c-0.64453 0-0.64453-0.64063-0.64453-0.64063v-9.6562s0-0.64062 0.64453-0.64062" fill="#94979b"/>
  <g fill="#96999d">
   <path d="m226.5 765.56h9.6797c0.64063 0 0.64453 0.64062 0.64453 0.64453v9.6328c0 4e-3 -4e-3 0.64063-0.64453 0.64063h-9.6797c-0.64453 0-0.64843-0.63672-0.64843-0.64063v-9.6328c0-4e-3 4e-3 -0.64453 0.64843-0.64453"/>
   <path d="m226.5 765.57h9.6602c0.64063 0 0.64453 0.63672 0.64453 0.64062v9.6172c0 4e-3 -4e-3 0.64063-0.64453 0.64063h-9.6602c-0.64063 0-0.64454-0.63672-0.64454-0.64063v-9.6133c0-8e-3 4e-3 -0.64453 0.64454-0.64453"/>
   <path d="m226.52 765.59h9.6406c0.63672 0 0.64062 0.63281 0.64062 0.64062v9.5938c0 8e-3 -4e-3 0.63672-0.64062 0.63672h-9.6406c-0.63671 0-0.64453-0.62891-0.64453-0.63672v-9.5938c0-4e-3 8e-3 -0.64062 0.64453-0.64062"/>
   <path d="m226.52 765.6h9.6211c0.63672 0 0.64063 0.6289 0.64063 0.63671v9.5742c0 8e-3 -8e-3 0.64063-0.64063 0.64063h-9.6211c-0.63282 0-0.64063-0.63281-0.64063-0.64063v-9.5703c0-8e-3 8e-3 -0.64062 0.64063-0.64062"/>
  </g>
  <g fill="#999b9f">
   <path d="m226.54 765.61h9.5976c0.63672 0 0.64063 0.62891 0.64063 0.63672v9.5547c0 8e-3 -8e-3 0.63672-0.64063 0.63672h-9.5976c-0.63282 0-0.64063-0.62891-0.64063-0.63672v-9.5547c0-8e-3 8e-3 -0.63672 0.64063-0.63672"/>
   <path d="m226.55 765.62h9.5781c0.62891 0 0.63672 0.625 0.63672 0.63672v9.5312c0 0.0117-8e-3 0.63672-0.63672 0.63672h-9.5781c-0.6289 0-0.64062-0.625-0.64062-0.63672v-9.5312c0-0.0117 0.0117-0.63672 0.64062-0.63672"/>
   <path d="m226.56 765.63h9.5547c0.62891 0 0.63672 0.6211 0.63672 0.63281v9.5156c0 0.0117-8e-3 0.63672-0.63672 0.63672h-9.5547c-0.6289 0-0.64062-0.625-0.64062-0.63672v-9.5117c0-0.0156 0.0117-0.63672 0.64062-0.63672"/>
  </g>
  <g fill="#9b9ea1">
   <path d="m226.57 765.64h9.5391c0.625 0 0.63672 0.61719 0.63672 0.63281v9.4922c0 0.0156-0.0117 0.63281-0.64063 0.63281h-9.5352c-0.625 0-0.63672-0.61718-0.63672-0.63281v-9.4922c0-0.0117 0.0117-0.63281 0.63672-0.63281"/>
   <path d="m226.58 765.65h9.5156c0.625 0 0.63672 0.61719 0.63672 0.63672v9.4688c0 0.0156-0.0117 0.63672-0.63672 0.63672h-9.5156c-0.625 0-0.64062-0.62109-0.64062-0.63672v-9.4688c0-0.0156 0.0156-0.63672 0.64062-0.63672"/>
   <path d="m226.59 765.66h9.4961c0.625 0 0.63672 0.61719 0.63672 0.63281v9.4492c0 0.0195-0.0156 0.63672-0.63672 0.63672h-9.4961c-0.6211 0-0.63672-0.61719-0.63672-0.63672v-9.4453c0-0.0195 0.0156-0.63672 0.63672-0.63672"/>
  </g>
  <g fill="#9d9fa2">
   <path d="m226.6 765.68h9.4766c0.61719 0 0.63281 0.61328 0.63281 0.63281v9.4297c0 0.0195-0.0156 0.63281-0.63672 0.63281h-9.4726c-0.61719 0-0.63672-0.61328-0.63672-0.63281v-9.4297c0-0.0195 0.0195-0.63281 0.63672-0.63281"/>
   <path d="m226.61 765.69h9.4531c0.61719 0 0.63281 0.60937 0.63281 0.63281v9.4062c0 0.0234-0.0156 0.63281-0.63281 0.63281h-9.4531c-0.61718 0-0.63671-0.60937-0.63671-0.63281v-9.4062c0-0.0234 0.0195-0.63281 0.63671-0.63281"/>
   <path d="m226.62 765.7h9.4336c0.61719 0 0.63281 0.60547 0.63281 0.6289v9.3906c0 0.0195-0.0195 0.62891-0.63281 0.62891h-9.4336c-0.61328 0-0.63282-0.60938-0.63282-0.62891v-9.3906c0-0.0234 0.0195-0.6289 0.63282-0.6289"/>
   <path d="m226.63 765.71h9.4141c0.60937 0 0.6289 0.60547 0.6289 0.6289v9.3672c0 0.0234-0.0195 0.62891-0.6289 0.62891h-9.4141c-0.61329 0-0.63282-0.60547-0.63282-0.62891v-9.3672c0-0.0234 0.0195-0.6289 0.63282-0.6289"/>
  </g>
  <g fill="#a0a2a4">
   <path d="m226.64 765.72h9.3906c0.60937 0 0.62891 0.60156 0.62891 0.625v9.3476c0 0.0274-0.0195 0.63281-0.62891 0.63281h-9.3906c-0.61328 0-0.63281-0.60546-0.63281-0.63281v-9.3476c0-0.0234 0.0195-0.625 0.63281-0.625"/>
   <path d="m226.65 765.73h9.3711c0.60938 0 0.63281 0.60156 0.63281 0.6289v9.3281c0 0.0273-0.0234 0.62891-0.63281 0.62891h-9.3711c-0.60938 0-0.62891-0.60157-0.62891-0.62891v-9.3281c0-0.0273 0.0195-0.6289 0.62891-0.6289"/>
   <path d="m226.66 765.74h9.3516c0.60547 0 0.6289 0.59765 0.6289 0.6289v9.3047c0 0.0273-0.0234 0.62891-0.63281 0.62891h-9.3476c-0.60547 0-0.62891-0.60157-0.62891-0.62891v-9.3047c0-0.0312 0.0234-0.6289 0.62891-0.6289"/>
  </g>
  <g fill="#a1a4a6">
   <path d="m226.67 765.75h9.3281c0.60156 0 0.62891 0.59375 0.62891 0.625v9.2852c0 0.0312-0.0273 0.62891-0.62891 0.62891h-9.3281c-0.60546 0-0.6289-0.59766-0.6289-0.62891v-9.2812c0-0.0351 0.0234-0.6289 0.6289-0.6289"/>
   <path d="m226.68 765.77h9.3086c0.60156 0 0.62891 0.58985 0.62891 0.625v9.2617c0 0.0352-0.0273 0.62891-0.62891 0.62891h-9.3086c-0.60157 0-0.62891-0.59375-0.62891-0.62891v-9.2617c0-0.0312 0.0273-0.625 0.62891-0.625"/>
   <path d="m226.69 765.78h9.2891c0.59765 0 0.625 0.58985 0.625 0.625v9.2422c0 0.0352-0.0273 0.625-0.62891 0.625h-9.2852c-0.60157 0-0.62891-0.58984-0.62891-0.625v-9.2422c0-0.0351 0.0273-0.625 0.62891-0.625"/>
  </g>
  <g fill="#a3a6a9">
   <path d="m226.7 765.79h9.2695c0.59766 0 0.62891 0.58594 0.62891 0.6211v9.2226c0 0.0391-0.0312 0.625-0.62891 0.625h-9.2695c-0.59375 0-0.625-0.58594-0.625-0.625v-9.2188c0-0.0391 0.0312-0.625 0.625-0.625"/>
   <path d="m226.71 765.8h9.25c0.59375 0 0.62109 0.58203 0.62109 0.62109v9.2031c0 0.0391-0.0312 0.62109-0.625 0.62109h-9.2461c-0.59375 0-0.625-0.58203-0.625-0.62109v-9.2031c0-0.0352 0.0312-0.62109 0.625-0.62109"/>
   <path d="m226.72 765.81h9.2266c0.59375 0 0.625 0.58203 0.625 0.61719v9.1836c0 0.043-0.0352 0.625-0.625 0.625h-9.2266c-0.59375 0-0.625-0.58203-0.625-0.625v-9.1797c0-0.0391 0.0312-0.62109 0.625-0.62109"/>
  </g>
  <g fill="#a6a7aa">
   <path d="m226.73 765.82h9.207c0.59375 0 0.625 0.58203 0.625 0.6211v9.1641c0 0.0391-0.0352 0.62109-0.625 0.62109h-9.207c-0.58985 0-0.6211-0.58203-0.6211-0.62109v-9.1641c0-0.0391 0.0312-0.6211 0.6211-0.6211"/>
   <path d="m226.74 765.83h9.1875c0.58593 0 0.62109 0.57813 0.62109 0.62109v9.1406c0 0.043-0.0352 0.62109-0.62109 0.62109h-9.1875c-0.58594 0-0.6211-0.57812-0.6211-0.62109v-9.1406c0-0.043 0.0352-0.62109 0.6211-0.62109"/>
   <path d="m226.75 765.84h9.1641c0.58594 0 0.62109 0.57422 0.62109 0.61719v9.125c0 0.043-0.0352 0.61718-0.62109 0.61718h-9.1641c-0.58594 0-0.625-0.57421-0.625-0.61718v-9.1211c0-0.0469 0.0391-0.62109 0.625-0.62109"/>
   <path d="m226.76 765.86h9.1445c0.58594 0 0.62109 0.57031 0.62109 0.61719v9.1016c0 0.0469-0.0391 0.61719-0.62109 0.61719h-9.1445c-0.58203 0-0.6211-0.57032-0.6211-0.61719v-9.1016c0-0.043 0.0391-0.61719 0.6211-0.61719"/>
  </g>
  <g fill="#a9a9ac">
   <path d="m226.77 765.87h9.125c0.58203 0 0.61718 0.5664 0.61718 0.61718v9.0781c0 0.0508-0.0391 0.61719-0.61718 0.61719h-9.125c-0.58203 0-0.6211-0.56641-0.6211-0.61719v-9.0781c0-0.0469 0.0391-0.61718 0.6211-0.61718"/>
   <path d="m226.79 765.88h9.1016c0.57812 0 0.61719 0.57031 0.61719 0.61719v9.0625c0 0.0469-0.0391 0.61328-0.61719 0.61328h-9.1016c-0.57813 0-0.6211-0.56641-0.6211-0.61328v-9.0625c0-0.0469 0.043-0.61719 0.6211-0.61719"/>
   <path d="m226.79 765.89h9.082c0.57812 0 0.62109 0.5625 0.62109 0.61329v9.0391c0 0.0508-0.043 0.61328-0.62109 0.61328h-9.082c-0.57422 0-0.61719-0.5625-0.61719-0.61328v-9.0391c0-0.0508 0.043-0.61329 0.61719-0.61329"/>
  </g>
  <g fill="#aaacae">
   <path d="m226.8 765.9h9.0625c0.57422 0 0.61718 0.5625 0.61718 0.61718v9.0156c0 0.0547-0.043 0.61719-0.62109 0.61719h-9.0586c-0.57422 0-0.61719-0.5625-0.61719-0.61719v-9.0156c0-0.0547 0.043-0.61718 0.61719-0.61718"/>
   <path d="m226.81 765.91h9.043c0.57422 0 0.61328 0.55859 0.61328 0.61328v9c0 0.0547-0.043 0.61328-0.61328 0.61328h-9.043c-0.57031 0-0.61328-0.5586-0.61328-0.61328v-9c0-0.0547 0.043-0.61328 0.61328-0.61328"/>
   <path d="m226.82 765.92h9.0195c0.57422 0 0.61719 0.55469 0.61719 0.61329v8.9766c0 0.0547-0.0469 0.61328-0.61719 0.61328h-9.0195c-0.57031 0-0.61328-0.55859-0.61328-0.61328v-8.9766c0-0.0547 0.043-0.61329 0.61328-0.61329"/>
  </g>
  <g fill="#acafb0">
   <path d="m226.84 765.93h9c0.5664 0 0.61328 0.55469 0.61328 0.61328v8.9531c0 0.0586-0.0469 0.61328-0.61328 0.61328h-9c-0.57032 0-0.61719-0.55469-0.61719-0.61328v-8.9531c0-0.0586 0.0469-0.61328 0.61719-0.61328"/>
   <path d="m226.84 765.95h8.9805c0.5664 0 0.61328 0.55078 0.61328 0.60938v8.9375c0 0.0586-0.0469 0.60937-0.61328 0.60937h-8.9805c-0.5625 0-0.61328-0.55078-0.61328-0.60937v-8.9375c0-0.0586 0.0508-0.60938 0.61328-0.60938"/>
   <path d="m226.86 765.96h8.957c0.56641 0 0.61328 0.54688 0.61328 0.60938v8.918c0 0.0586-0.0469 0.60938-0.61328 0.60938h-8.957c-0.5625 0-0.61328-0.55078-0.61328-0.60938v-8.918c0-0.0586 0.0508-0.60938 0.61328-0.60938"/>
   <path d="m226.87 765.96h8.9375c0.55859 0 0.60937 0.55078 0.60937 0.60938v8.8945c0 0.0664-0.0508 0.60937-0.60937 0.60937h-8.9375c-0.5625 0-0.61328-0.54296-0.61328-0.60937v-8.8945c0-0.0586 0.0508-0.60938 0.61328-0.60938"/>
  </g>
  <g fill="#afb1b3">
   <path d="m226.88 765.98h8.918c0.55859 0 0.61328 0.54297 0.61328 0.60938v8.875c0 0.0625-0.0547 0.60547-0.61328 0.60547h-8.918c-0.55859 0-0.60938-0.54297-0.60938-0.60547v-8.875c0-0.0664 0.0508-0.60938 0.60938-0.60938"/>
   <path d="m226.89 765.99h8.8945c0.55859 0 0.61328 0.54297 0.61328 0.60547v8.8555c0 0.0703-0.0547 0.60937-0.61328 0.60937h-8.8945c-0.55469 0-0.60938-0.53906-0.60938-0.60937v-8.8516c0-0.0664 0.0547-0.60938 0.60938-0.60938"/>
   <path d="m226.9 766h8.875c0.55468 0 0.60937 0.53906 0.60937 0.60547v8.8359c0 0.0664-0.0547 0.60546-0.60937 0.60546h-8.875c-0.55469 0-0.60938-0.53906-0.60938-0.60546v-8.8359c0-0.0664 0.0547-0.60547 0.60938-0.60547"/>
  </g>
  <g fill="#b1b3b4">
   <path d="m226.91 766.01h8.8555c0.55078 0 0.60937 0.53515 0.60937 0.60547v8.8125c0 0.0703-0.0586 0.60547-0.60937 0.60547h-8.8555c-0.55078 0-0.60547-0.53516-0.60547-0.60547v-8.8125c0-0.0703 0.0547-0.60547 0.60547-0.60547"/>
   <path d="m226.92 766.02h8.8359c0.54687 0 0.60546 0.53125 0.60546 0.60156v8.793c0 0.0703-0.0586 0.60547-0.60546 0.60547h-8.8359c-0.55078 0-0.60938-0.53516-0.60938-0.60547v-8.7891c0-0.0742 0.0586-0.60547 0.60938-0.60547"/>
   <path d="m226.93 766.04h8.8164c0.54687 0 0.60547 0.53125 0.60547 0.60156v8.7734c0 0.0703-0.0586 0.60156-0.60547 0.60156h-8.8164c-0.54687 0-0.60547-0.53125-0.60547-0.60156v-8.7734c0-0.0703 0.0586-0.60156 0.60547-0.60156"/>
  </g>
  <g fill="#b3b4b6">
   <path d="m226.94 766.05h8.793c0.54687 0 0.60547 0.52735 0.60547 0.60157v8.75c0 0.0742-0.0586 0.60547-0.60547 0.60547h-8.793c-0.54297 0-0.60547-0.53125-0.60547-0.60547v-8.75c0-0.0742 0.0625-0.60157 0.60547-0.60157"/>
   <path d="m226.95 766.06h8.7734c0.54296 0 0.60156 0.52344 0.60156 0.59766v8.7344c0 0.0742-0.0586 0.59766-0.60156 0.59766h-8.7734c-0.54297 0-0.60547-0.52344-0.60547-0.59766v-8.7344c0-0.0742 0.0625-0.59766 0.60547-0.59766"/>
   <path d="m226.96 766.07h8.7539c0.53906 0 0.60547 0.52343 0.60547 0.60156v8.7109c0 0.0781-0.0664 0.60156-0.60547 0.60156h-8.7539c-0.53906 0-0.60156-0.52344-0.60156-0.60156v-8.7109c0-0.0781 0.0625-0.60156 0.60156-0.60156"/>
   <path d="m226.97 766.08h8.7305c0.53906 0 0.60156 0.51954 0.60156 0.59766v8.6953c0 0.0781-0.0625 0.59766-0.60156 0.59766h-8.7305c-0.53906 0-0.60156-0.51953-0.60156-0.59766v-8.6914c0-0.082 0.0625-0.60157 0.60156-0.60157"/>
  </g>
  <g fill="#b6b6b8">
   <path d="m226.98 766.09h8.7109c0.53515 0 0.60156 0.51953 0.60156 0.59766v8.6719c0 0.082-0.0664 0.59766-0.60156 0.59766h-8.7109c-0.53516 0-0.60547-0.51562-0.60547-0.59766v-8.6719c0-0.0781 0.0703-0.59766 0.60547-0.59766"/>
   <path d="m226.99 766.1h8.6914c0.53515 0 0.60156 0.51563 0.60156 0.59766v8.6484c0 0.082-0.0664 0.59765-0.60156 0.59765h-8.6914c-0.53125 0-0.60156-0.51562-0.60156-0.59765v-8.6484c0-0.082 0.0703-0.59766 0.60156-0.59766"/>
   <path d="m227 766.11h8.6719c0.53125 0 0.59766 0.51172 0.59766 0.59375v8.6328c0 0.082-0.0664 0.59375-0.60156 0.59375h-8.668c-0.53125 0-0.59766-0.51172-0.59766-0.59375v-8.6328c0-0.082 0.0664-0.59375 0.59766-0.59375"/>
  </g>
  <g fill="#b8b8ba">
   <path d="m227.01 766.12h8.6524c0.53125 0 0.59765 0.51563 0.59765 0.59766v8.6094c0 0.082-0.0703 0.59375-0.59765 0.59375h-8.6524c-0.52734 0-0.59765-0.51171-0.59765-0.59375v-8.6094c0-0.082 0.0703-0.59766 0.59765-0.59766"/>
   <path d="m227.02 766.13h8.6289c0.52734 0 0.59765 0.50781 0.59765 0.59766v8.5859c0 0.0898-0.0703 0.59765-0.59765 0.59765h-8.6289c-0.52344 0-0.59766-0.50781-0.59766-0.59765v-8.5859c0-0.0898 0.0742-0.59766 0.59766-0.59766"/>
   <path d="m227.03 766.14h8.6094c0.52344 0 0.59375 0.50781 0.59375 0.59375v8.5664c0 0.0898-0.0742 0.59765-0.59375 0.59765h-8.6094c-0.52344 0-0.59766-0.50781-0.59766-0.59765v-8.5664c0-0.0859 0.0742-0.59375 0.59766-0.59375"/>
  </g>
  <g fill="#b9bbbc">
   <path d="m227.04 766.16h8.5898c0.52343 0 0.59375 0.50391 0.59375 0.59375v8.5469c0 0.0898-0.0742 0.59375-0.59375 0.59375h-8.5898c-0.51953 0-0.59375-0.5039-0.59375-0.59375v-8.5469c0-0.0898 0.0742-0.59375 0.59375-0.59375"/>
   <path d="m227.05 766.17h8.5703c0.51563 0 0.59375 0.5 0.59375 0.58984v8.5274c0 0.0937-0.0781 0.59375-0.59765 0.59375h-8.5664c-0.51953 0-0.59375-0.5-0.59375-0.59375v-8.5274c0-0.0898 0.0742-0.58984 0.59375-0.58984"/>
   <path d="m227.06 766.18h8.5469c0.51563 0 0.58985 0.5 0.58985 0.58984v8.5078c0 0.0937-0.0742 0.58985-0.58985 0.58985h-8.5469c-0.51953 0-0.59375-0.4961-0.59375-0.58985v-8.5078c0-0.0898 0.0742-0.58984 0.59375-0.58984"/>
  </g>
  <g fill="#bbbdbe">
   <path d="m227.07 766.19h8.5274c0.51562 0 0.59375 0.49218 0.59375 0.58984v8.4844c0 0.0977-0.0781 0.58985-0.59375 0.58985h-8.5274c-0.51172 0-0.58984-0.49219-0.58984-0.58985v-8.4844c0-0.0977 0.0781-0.58984 0.58984-0.58984"/>
   <path d="m227.08 766.2h8.5078c0.51172 0 0.58985 0.48829 0.58985 0.58594v8.4688c0 0.0937-0.0781 0.58985-0.59375 0.58985h-8.5039c-0.51172 0-0.59375-0.4961-0.59375-0.58985v-8.4688c0-0.0937 0.082-0.58594 0.59375-0.58594"/>
   <path d="m227.09 766.21h8.4844c0.51172 0 0.58985 0.48828 0.58985 0.58594v8.4453c0 0.0977-0.082 0.58594-0.58985 0.58594h-8.4844c-0.51172 0-0.59375-0.48828-0.59375-0.58594v-8.4414c0-0.10157 0.082-0.58985 0.59375-0.58985"/>
   <path d="m227.1 766.22h8.4648c0.50781 0 0.58984 0.48828 0.58984 0.58984v8.4219c0 0.10157-0.082 0.58985-0.58984 0.58985h-8.4648c-0.50781 0-0.58984-0.48828-0.58984-0.58985v-8.4219c0-0.10156 0.082-0.58984 0.58984-0.58984"/>
  </g>
  <g fill="#bdbfc0">
   <path d="m227.11 766.23h8.4453c0.50391 0 0.58594 0.48438 0.58594 0.58594v8.4062c0 0.10156-0.082 0.58594-0.58984 0.58594h-8.4414c-0.50391 0-0.58984-0.48438-0.58984-0.58594v-8.4062c0-0.10156 0.0859-0.58594 0.58984-0.58594"/>
   <path d="m227.12 766.25h8.4219c0.50391 0 0.58594 0.48047 0.58594 0.58594v8.3828c0 0.10547-0.082 0.58594-0.58594 0.58594h-8.4219c-0.50391 0-0.58984-0.48047-0.58984-0.58594v-8.3828c0-0.10547 0.0859-0.58594 0.58984-0.58594"/>
   <path d="m227.13 766.26h8.4024c0.5039 0 0.58984 0.48047 0.58984 0.58594v8.3633c0 0.10156-0.0859 0.58203-0.58984 0.58203h-8.4024c-0.5 0-0.58594-0.48047-0.58594-0.58203v-8.3633c0-0.10547 0.0859-0.58594 0.58594-0.58594"/>
  </g>
  <g fill="#c0c1c2">
   <path d="m227.14 766.27h8.3789c0.5039 0 0.58984 0.47656 0.58984 0.58203v8.3438c0 0.10547-0.0898 0.58203-0.58984 0.58203h-8.3789c-0.5 0-0.58594-0.47656-0.58594-0.58203v-8.3438c0-0.10547 0.0859-0.58203 0.58594-0.58203"/>
   <path d="m227.15 766.28h8.3633c0.4961 0 0.58594 0.47266 0.58594 0.58203v8.3203c0 0.10938-0.0898 0.58203-0.58594 0.58203h-8.3633c-0.49609 0-0.58593-0.47265-0.58593-0.58203v-8.3203c0-0.10937 0.0898-0.58203 0.58593-0.58203"/>
   <path d="m227.16 766.29h8.3398c0.49609 0 0.58593 0.46875 0.58593 0.58203v8.3008c0 0.10938-0.0898 0.58203-0.58593 0.58203h-8.3398c-0.49219 0-0.58594-0.47265-0.58594-0.58203v-8.3008c0-0.11328 0.0937-0.58203 0.58594-0.58203"/>
  </g>
  <g fill="#c2c3c4">
   <path d="m227.18 766.3h8.3203c0.49219 0 0.58203 0.47266 0.58203 0.58203v8.2812c0 0.11328-0.0898 0.58203-0.58203 0.58203h-8.3203c-0.49219 0-0.58594-0.46875-0.58594-0.58203v-8.2812c0-0.10937 0.0937-0.58203 0.58594-0.58203"/>
   <path d="m227.18 766.31h8.3008c0.49219 0 0.58204 0.46875 0.58204 0.58203v8.2578c0 0.11328-0.0898 0.58203-0.58204 0.58203h-8.3008c-0.48828 0-0.58203-0.46875-0.58203-0.58203v-8.2578c0-0.11328 0.0937-0.58203 0.58203-0.58203"/>
   <path d="m227.2 766.32h8.2774c0.49218 0 0.58203 0.46484 0.58203 0.58203v8.2383c0 0.11328-0.0937 0.57813-0.58203 0.57813h-8.2774c-0.48828 0-0.58203-0.46485-0.58203-0.57813v-8.2383c0-0.11719 0.0937-0.58203 0.58203-0.58203"/>
   <path d="m227.21 766.34h8.2578c0.48828 0 0.57813 0.46093 0.57813 0.57812v8.2188c0 0.11719-0.0937 0.57813-0.57813 0.57813h-8.2578c-0.48437 0-0.58203-0.46094-0.58203-0.57813v-8.2188c0-0.11719 0.0977-0.57812 0.58203-0.57812"/>
  </g>
  <g fill="#c4c6c7">
   <path d="m227.21 766.35h8.2383c0.48438 0 0.57813 0.45703 0.57813 0.57812v8.1953c0 0.1211-0.0937 0.57813-0.57813 0.57813h-8.2383c-0.48047 0-0.57812-0.45703-0.57812-0.57813v-8.1953c0-0.12109 0.0977-0.57812 0.57812-0.57812"/>
   <path d="m227.23 766.36h8.2188c0.48047 0 0.57422 0.45313 0.57422 0.57422v8.1797c0 0.11719-0.0977 0.57422-0.57812 0.57422h-8.2148c-0.48047 0-0.57812-0.45703-0.57812-0.57422v-8.1797c0-0.11718 0.0977-0.57422 0.57812-0.57422"/>
   <path d="m227.24 766.37h8.1953c0.48047 0 0.57422 0.45703 0.57422 0.57812v8.1562c0 0.1211-0.0977 0.57422-0.57422 0.57422h-8.1953c-0.48047 0-0.57812-0.45312-0.57812-0.57422v-8.1562c0-0.12109 0.0977-0.57812 0.57812-0.57812"/>
  </g>
  <g fill="#c7c8c8">
   <path d="m227.25 766.38h8.1758c0.47657 0 0.57813 0.44922 0.57813 0.57422v8.1367c0 0.12109-0.10156 0.57422-0.57813 0.57422h-8.1758c-0.47656 0-0.57422-0.45313-0.57422-0.57422v-8.1367c0-0.125 0.0977-0.57422 0.57422-0.57422"/>
   <path d="m227.26 766.39h8.1562c0.47266 0 0.57422 0.44922 0.57422 0.57422v8.1172c0 0.125-0.10156 0.57422-0.57422 0.57422h-8.1562c-0.47656 0-0.57422-0.44922-0.57422-0.57422v-8.1172c0-0.125 0.0977-0.57422 0.57422-0.57422"/>
   <path d="m227.27 766.4h8.1367c0.47266 0 0.57422 0.44532 0.57422 0.57422v8.0938c0 0.12891-0.10156 0.57422-0.57422 0.57422h-8.1367c-0.46875 0-0.57421-0.44531-0.57421-0.57422v-8.0938c0-0.125 0.10546-0.57422 0.57421-0.57422"/>
  </g>
  <g fill="#c9c9cb">
   <path d="m227.28 766.41h8.1133c0.46875 0 0.57422 0.44531 0.57422 0.57422v8.0742c0 0.125-0.10547 0.57031-0.57422 0.57031h-8.1133c-0.46875 0-0.57422-0.44531-0.57422-0.57031v-8.0742c0-0.12891 0.10547-0.57422 0.57422-0.57422"/>
   <path d="m227.29 766.43h8.0938c0.46485 0 0.57031 0.44141 0.57031 0.57031v8.0547c0 0.12891-0.10546 0.57031-0.57421 0.57031h-8.0898c-0.46875 0-0.57422-0.4414-0.57422-0.57031v-8.0547c0-0.1289 0.10547-0.57031 0.57422-0.57031"/>
   <path d="m227.3 766.44h8.0703c0.46485 0 0.57032 0.4375 0.57032 0.56641v8.0352c0 0.13281-0.10547 0.57031-0.57032 0.57031h-8.0703c-0.46484 0-0.57422-0.4375-0.57422-0.57031v-8.0312c0-0.13281 0.10938-0.57031 0.57422-0.57031"/>
   <path d="m227.31 766.45h8.0508c0.46485 0 0.57422 0.43359 0.57422 0.5664v8.0156c0 0.13281-0.10937 0.56641-0.57422 0.56641h-8.0508c-0.46093 0-0.57031-0.4336-0.57031-0.56641v-8.0156c0-0.1289 0.10938-0.5664 0.57031-0.5664"/>
  </g>
  <g fill="#cbcbcd">
   <path d="m227.32 766.46h8.0312c0.46094 0 0.57031 0.42968 0.57031 0.5664v7.9922c0 0.13672-0.10937 0.57031-0.57421 0.57031h-8.0274c-0.46094 0-0.57422-0.43359-0.57422-0.57031v-7.9922c0-0.13281 0.11328-0.5664 0.57422-0.5664"/>
   <path d="m227.33 766.47h8.0117c0.46094 0 0.57032 0.43359 0.57032 0.57031v7.9688c0 0.13672-0.11329 0.57031-0.57032 0.57031h-8.0117c-0.45703 0-0.57031-0.43359-0.57031-0.57031v-7.9688c0-0.13672 0.11328-0.57031 0.57031-0.57031"/>
   <path d="m227.34 766.48h7.9883c0.45704 0 0.57032 0.42969 0.57032 0.5664v7.9531c0 0.13672-0.11328 0.56641-0.57032 0.56641h-7.9883c-0.45703 0-0.57031-0.42969-0.57031-0.56641v-7.9531c0-0.13671 0.11328-0.5664 0.57031-0.5664"/>
  </g>
  <g fill="#cecdce">
   <path d="m227.35 766.49h7.9688c0.45313 0 0.56641 0.42578 0.56641 0.5664v7.9297c0 0.14063-0.11328 0.56641-0.57031 0.56641h-7.9648c-0.45703 0-0.57031-0.42578-0.57031-0.56641v-7.9297c0-0.14062 0.11328-0.5664 0.57031-0.5664"/>
   <path d="m227.36 766.5h7.9492c0.45313 0 0.56641 0.42187 0.56641 0.5625v7.9102c0 0.14453-0.11328 0.56641-0.56641 0.56641h-7.9492c-0.44921 0-0.5664-0.42188-0.5664-0.56641v-7.9102c0-0.14063 0.11719-0.5625 0.5664-0.5625"/>
   <path d="m227.37 766.52h7.9297c0.44922 0 0.56641 0.42188 0.56641 0.5625v7.8906c0 0.14453-0.11719 0.56641-0.57032 0.56641h-7.9258c-0.44922 0-0.5664-0.42188-0.5664-0.56641v-7.8906c0-0.14062 0.11718-0.5625 0.5664-0.5625"/>
  </g>
  <g fill="#cfcfd1">
   <path d="m227.38 766.53h7.9062c0.44531 0 0.5625 0.41797 0.5625 0.5625v7.8672c0 0.14844-0.11719 0.56641-0.5625 0.56641h-7.9062c-0.44922 0-0.5664-0.41797-0.5664-0.56641v-7.8672c0-0.14453 0.11718-0.5625 0.5664-0.5625"/>
   <path d="m227.39 766.54h7.8867c0.44532 0 0.56641 0.41796 0.56641 0.5625v7.8516c0 0.14453-0.12109 0.5625-0.56641 0.5625h-7.8867c-0.4414 0-0.5625-0.41797-0.5625-0.5625v-7.8516c0-0.14454 0.1211-0.5625 0.5625-0.5625"/>
   <path d="m227.4 766.55h7.8672c0.44141 0 0.5625 0.41407 0.5625 0.5625v7.8281c0 0.14844-0.12109 0.5625-0.5625 0.5625h-7.8672c-0.4414 0-0.5664-0.41406-0.5664-0.5625v-7.8281c0-0.14843 0.125-0.5625 0.5664-0.5625"/>
  </g>
  <g fill="#d1d2d3">
   <path d="m227.41 766.56h7.8438c0.44141 0 0.5625 0.41016 0.5625 0.5586v7.8086c0 0.15234-0.12109 0.5625-0.5625 0.5625h-7.8438c-0.4414 0-0.5664-0.41016-0.5664-0.5625v-7.8047c0-0.15234 0.125-0.5625 0.5664-0.5625"/>
   <path d="m227.42 766.57h7.8242c0.44141 0 0.5625 0.41016 0.5625 0.5586v7.7891c0 0.14844-0.125 0.55859-0.5625 0.55859h-7.8242c-0.4375 0-0.5625-0.41015-0.5625-0.55859v-7.7891c0-0.14844 0.125-0.5586 0.5625-0.5586"/>
   <path d="m227.43 766.58h7.8047c0.43359 0 0.55859 0.40234 0.55859 0.55859v7.7656c0 0.15234-0.125 0.55859-0.55859 0.55859h-7.8047c-0.4375 0-0.5625-0.40625-0.5625-0.55859v-7.7656c0-0.15234 0.125-0.55859 0.5625-0.55859"/>
   <path d="m227.44 766.59h7.7852c0.4336 0 0.5586 0.40234 0.5586 0.55469v7.75c0 0.15234-0.125 0.55468-0.5586 0.55468h-7.7852c-0.4336 0-0.5586-0.40234-0.5586-0.55468v-7.75c0-0.15235 0.125-0.55469 0.5586-0.55469"/>
  </g>
  <g fill="#d5d4d4">
   <path d="m227.45 766.61h7.7656c0.42969 0 0.55469 0.39844 0.55469 0.55469v7.7266c0 0.15625-0.125 0.55859-0.55469 0.55859h-7.7656c-0.42968 0-0.55859-0.40234-0.55859-0.55859v-7.7266c0-0.15625 0.12891-0.55469 0.55859-0.55469"/>
   <path d="m227.46 766.61h7.7422c0.42969 0 0.55469 0.39844 0.55469 0.55859v7.707c0 0.15625-0.12891 0.55468-0.55469 0.55468h-7.7422c-0.42968 0-0.55859-0.39843-0.55859-0.55468v-7.707c0-0.16015 0.12891-0.55859 0.55859-0.55859"/>
   <path d="m227.47 766.62h7.7226c0.42578 0 0.55469 0.39844 0.55469 0.55469v7.6875c0 0.16015-0.12891 0.55468-0.55469 0.55468h-7.7226c-0.42579 0-0.55469-0.39453-0.55469-0.55468v-7.6875c0-0.15625 0.1289-0.55469 0.55469-0.55469"/>
  </g>
  <g fill="#d6d6d6">
   <path d="m227.48 766.64h7.7031c0.42187 0 0.55469 0.39453 0.55469 0.55469v7.6641c0 0.16406-0.13282 0.55469-0.5586 0.55469h-7.6992c-0.42578 0-0.55468-0.39063-0.55468-0.55469v-7.6641c0-0.16016 0.1289-0.55469 0.55468-0.55469"/>
   <path d="m227.5 766.65h7.6797c0.42188 0 0.55469 0.39062 0.55469 0.55078v7.6484c0 0.16015-0.13281 0.55078-0.55469 0.55078h-7.6797c-0.42187 0-0.55859-0.39063-0.55859-0.55078v-7.6445c0-0.16406 0.13672-0.55468 0.55859-0.55468"/>
   <path d="m227.5 766.66h7.6602c0.42188 0 0.55469 0.38671 0.55469 0.55078v7.625c0 0.16406-0.13281 0.55078-0.55469 0.55078h-7.6602c-0.41797 0-0.55469-0.38672-0.55469-0.55078v-7.625c0-0.16407 0.13672-0.55078 0.55469-0.55078"/>
  </g>
  <g fill="#d8d8d8">
   <path d="m227.52 766.67h7.6367c0.41797 0 0.55469 0.38282 0.55469 0.55079v7.6016c0 0.16797-0.13672 0.55078-0.55469 0.55078h-7.6367c-0.41796 0-0.55468-0.38281-0.55468-0.55078v-7.6016c0-0.16407 0.13672-0.55079 0.55468-0.55079"/>
   <path d="m227.52 766.68h7.6211c0.41406 0 0.55078 0.38282 0.55078 0.54688v7.582c0 0.17187-0.13672 0.55469-0.55078 0.55469h-7.6211c-0.41407 0-0.55078-0.38282-0.55078-0.55469v-7.5781c0-0.16796 0.13671-0.55078 0.55078-0.55078"/>
   <path d="m227.54 766.7h7.5976c0.41406 0 0.55078 0.37891 0.55078 0.54688v7.5625c0 0.16797-0.13672 0.55078-0.55078 0.55078h-7.5976c-0.41407 0-0.55079-0.38281-0.55079-0.55078v-7.5625c0-0.16797 0.13672-0.54688 0.55079-0.54688"/>
   <path d="m227.55 766.7h7.5781c0.41016 0 0.54687 0.37891 0.54687 0.55079v7.5391c0 0.17187-0.13671 0.55078-0.54687 0.55078h-7.5781c-0.41015 0-0.55078-0.37891-0.55078-0.55078v-7.5391c0-0.17188 0.14063-0.55079 0.55078-0.55079"/>
  </g>
  <g fill="#d9dada">
   <path d="m227.55 766.71h7.5586c0.41016 0 0.54688 0.375 0.54688 0.54688v7.5234c0 0.17187-0.13672 0.54687-0.54688 0.54687h-7.5586c-0.40625 0-0.54688-0.375-0.54688-0.54687v-7.5234c0-0.17188 0.14063-0.54688 0.54688-0.54688"/>
   <path d="m227.57 766.73h7.5352c0.40625 0 0.55078 0.3711 0.55078 0.54688v7.5039c0 0.17188-0.14453 0.54297-0.55078 0.54297h-7.5352c-0.40625 0-0.54688-0.37109-0.54688-0.54297v-7.5039c0-0.17188 0.14063-0.54688 0.54688-0.54688"/>
   <path d="m227.58 766.74h7.5156c0.40234 0 0.54687 0.36719 0.54687 0.54688v7.4766c0 0.17578-0.14453 0.54687-0.54687 0.54687h-7.5156c-0.40625 0-0.55078-0.37109-0.55078-0.54687v-7.4766c0-0.17579 0.14453-0.54688 0.55078-0.54688"/>
  </g>
  <g fill="#dcdbdc">
   <path d="m227.59 766.75h7.4961c0.40234 0 0.54688 0.36719 0.54688 0.54297v7.4609c0 0.17578-0.14454 0.54296-0.54688 0.54296h-7.4961c-0.39844 0-0.54688-0.36718-0.54688-0.54296v-7.4609c0-0.17578 0.14844-0.54297 0.54688-0.54297"/>
   <path d="m227.6 766.76h7.4726c0.40235 0 0.54688 0.36328 0.54688 0.54297v7.4375c0 0.17968-0.14453 0.54687-0.54688 0.54687h-7.4726c-0.39844 0-0.54688-0.36719-0.54688-0.54687v-7.4375c0-0.17969 0.14844-0.54297 0.54688-0.54297"/>
   <path d="m227.61 766.77h7.4531c0.39844 0 0.54297 0.35937 0.54297 0.53906v7.4219c0 0.17969-0.14453 0.54297-0.54297 0.54297h-7.4531c-0.39843 0-0.54687-0.36328-0.54687-0.54297v-7.418c0-0.1836 0.14844-0.54297 0.54687-0.54297"/>
  </g>
  <g fill="#dededd">
   <path d="m227.62 766.78h7.4336c0.39453 0 0.54297 0.36328 0.54297 0.54297v7.3984c0 0.18359-0.14844 0.54296-0.54297 0.54296h-7.4336c-0.39453 0-0.54297-0.35937-0.54297-0.54296v-7.3984c0-0.17969 0.14844-0.54297 0.54297-0.54297"/>
   <path d="m227.63 766.79h7.4141c0.39062 0 0.54297 0.35937 0.54297 0.54297v7.375c0 0.1875-0.15235 0.54297-0.54297 0.54297h-7.4141c-0.39454 0-0.54297-0.35547-0.54297-0.54297v-7.375c0-0.1836 0.14843-0.54297 0.54297-0.54297"/>
   <path d="m227.64 766.8h7.3945c0.39062 0 0.54297 0.35547 0.54297 0.53906v7.3594c0 0.1875-0.15235 0.53907-0.54297 0.53907h-7.3945c-0.39063 0-0.53906-0.35157-0.53906-0.53907v-7.3555c0-0.1875 0.14843-0.54297 0.53906-0.54297"/>
   <path d="m227.65 766.82h7.3711c0.39063 0 0.54297 0.35156 0.54297 0.53906v7.3359c0 0.1875-0.15625 0.53906-0.54297 0.53906h-7.3711c-0.38672 0-0.54297-0.35156-0.54297-0.53906v-7.3359c0-0.1875 0.15625-0.53906 0.54297-0.53906"/>
  </g>
  <g fill="#e1dfdf">
   <path d="m227.66 766.83h7.3516c0.38281 0 0.53906 0.34766 0.53906 0.53907v7.3125c0 0.1914-0.15625 0.53906-0.53906 0.53906h-7.3516c-0.38672 0-0.54297-0.34766-0.54297-0.53906v-7.3125c0-0.19141 0.15625-0.53907 0.54297-0.53907"/>
   <path d="m227.67 766.84h7.3281c0.38281 0 0.53906 0.34375 0.53906 0.53516v7.2969c0 0.19141-0.15625 0.53516-0.53906 0.53516h-7.3281c-0.38671 0-0.54296-0.34375-0.54296-0.53516v-7.2969c0-0.1875 0.15625-0.53516 0.54296-0.53516"/>
   <path d="m227.68 766.85h7.3086c0.38281 0 0.53906 0.34375 0.53906 0.53516v7.2734c0 0.19531-0.15625 0.53906-0.53906 0.53906h-7.3086c-0.37891 0-0.53907-0.34375-0.53907-0.53906v-7.2734c0-0.19141 0.16016-0.53516 0.53907-0.53516"/>
  </g>
  <g fill="#e4e2e1">
   <path d="m227.69 766.86h7.2891c0.3789 0 0.53515 0.34375 0.53515 0.53516v7.2578c0 0.19141-0.16015 0.53516-0.53515 0.53516h-7.2891c-0.37891 0-0.53907-0.34375-0.53907-0.53516v-7.2578c0-0.19141 0.16016-0.53516 0.53907-0.53516"/>
   <path d="m227.7 766.87h7.2695c0.37891 0 0.53906 0.33985 0.53906 0.53516v7.2344c0 0.19532-0.16406 0.53516-0.53906 0.53516h-7.2695c-0.375 0-0.53516-0.33984-0.53516-0.53516v-7.2344c0-0.19531 0.16016-0.53516 0.53516-0.53516"/>
   <path d="m227.71 766.88h7.25c0.37109 0 0.53125 0.33594 0.53125 0.53516v7.2109c0 0.19921-0.16016 0.53515-0.53125 0.53515h-7.25c-0.375 0-0.53516-0.33594-0.53516-0.53515v-7.2109c0-0.19922 0.16016-0.53516 0.53516-0.53516"/>
  </g>
  <g fill="#e4e4e4">
   <path d="m227.72 766.89h7.2266c0.37109 0 0.53515 0.33203 0.53515 0.53125v7.1953c0 0.19922-0.16406 0.53125-0.53515 0.53125h-7.2266c-0.375 0-0.53516-0.33203-0.53516-0.53125v-7.1953c0-0.19922 0.16016-0.53125 0.53516-0.53125"/>
   <path d="m227.73 766.91h7.207c0.37109 0 0.53516 0.33203 0.53516 0.53125v7.1719c0 0.20313-0.16407 0.53125-0.53516 0.53125h-7.207c-0.36719 0-0.53125-0.32812-0.53125-0.53125v-7.1719c0-0.19922 0.16406-0.53125 0.53125-0.53125"/>
   <path d="m227.74 766.92h7.1875c0.36718 0 0.53125 0.32812 0.53125 0.52734v7.1562c0 0.19922-0.16407 0.52735-0.53125 0.52735h-7.1875c-0.36719 0-0.53516-0.32813-0.53516-0.52735v-7.1523c0-0.20313 0.16797-0.53125 0.53516-0.53125"/>
  </g>
  <g fill="#e7e7e6">
   <path d="m227.75 766.93h7.168c0.36719 0 0.53125 0.32422 0.53125 0.53125v7.1289c0 0.20313-0.16406 0.53125-0.53125 0.53125h-7.168c-0.36328 0-0.53125-0.32812-0.53125-0.53125v-7.1289c0-0.20703 0.16797-0.53125 0.53125-0.53125"/>
   <path d="m227.76 766.94h7.1445c0.36328 0 0.53125 0.32031 0.53125 0.52734v7.1094c0 0.20704-0.16797 0.53125-0.53125 0.53125h-7.1445c-0.36328 0-0.53125-0.32421-0.53125-0.53125v-7.1094c0-0.20703 0.16797-0.52734 0.53125-0.52734"/>
   <path d="m227.77 766.95h7.125c0.35937 0 0.52734 0.32422 0.52734 0.53125v7.0898c0 0.20703-0.16797 0.52735-0.52734 0.52735h-7.125c-0.36328 0-0.53125-0.32032-0.53125-0.52735v-7.0898c0-0.20703 0.16797-0.53125 0.53125-0.53125"/>
   <path d="m227.78 766.96h7.1055c0.35937 0 0.52734 0.32031 0.52734 0.52734v7.0703c0 0.20703-0.16797 0.52735-0.52734 0.52735h-7.1055c-0.35547 0-0.52734-0.32032-0.52734-0.52735v-7.0703c0-0.20703 0.17187-0.52734 0.52734-0.52734"/>
  </g>
  <g fill="#e9e8e7">
   <path d="m227.79 766.97h7.082c0.35937 0 0.52734 0.3164 0.52734 0.52734v7.0469c0 0.21094-0.17187 0.52735-0.52734 0.52735h-7.082c-0.35547 0-0.52735-0.31641-0.52735-0.52735v-7.0469c0-0.21094 0.17188-0.52734 0.52735-0.52734"/>
   <path d="m227.8 766.98h7.0586c0.35938 0 0.53125 0.3125 0.53125 0.52344v7.0312c0 0.21094-0.17187 0.52735-0.53125 0.52735h-7.0586c-0.35547 0-0.52735-0.31641-0.52735-0.52735v-7.0312c0-0.21094 0.17188-0.52344 0.52735-0.52344"/>
   <path d="m227.81 767h7.043c0.35156 0 0.52734 0.3125 0.52734 0.52344v7.0078c0 0.21485-0.17578 0.52344-0.52734 0.52344h-7.043c-0.35156 0-0.52344-0.30859-0.52344-0.52344v-7.0078c0-0.21094 0.17188-0.52344 0.52344-0.52344"/>
  </g>
  <g fill="#eceae9">
   <path d="m227.82 767.01h7.0195c0.35156 0 0.52734 0.3086 0.52734 0.51953v6.9922c0 0.21484-0.17578 0.51953-0.52734 0.51953h-7.0195c-0.34766 0-0.52344-0.30469-0.52344-0.51953v-6.9883c0-0.21484 0.17578-0.52344 0.52344-0.52344"/>
   <path d="m227.84 767.02h7c0.34765 0 0.52343 0.30469 0.52343 0.51953v6.9688c0 0.21485-0.17968 0.52344-0.52343 0.52344h-7c-0.34766 0-0.52735-0.30859-0.52735-0.52344v-6.9688c0-0.21484 0.17969-0.51953 0.52735-0.51953"/>
   <path d="m227.84 767.03h6.9805c0.34375 0 0.52344 0.30469 0.52344 0.52344v6.9453c0 0.21875-0.17969 0.52344-0.52344 0.52344h-6.9805c-0.34375 0-0.52344-0.30469-0.52344-0.52344v-6.9453c0-0.21875 0.17969-0.52344 0.52344-0.52344"/>
  </g>
  <g fill="#ededec">
   <path d="m227.86 767.04h6.957c0.34375 0 0.52344 0.30078 0.52344 0.52344v6.9258c0 0.21875-0.17969 0.51953-0.52344 0.51953h-6.957c-0.34375 0-0.52344-0.30078-0.52344-0.51953v-6.9258c0-0.22266 0.17969-0.52344 0.52344-0.52344"/>
   <path d="m227.87 767.05h6.9375c0.33984 0 0.51953 0.30078 0.51953 0.51953v6.9062c0 0.22266-0.17969 0.51953-0.51953 0.51953h-6.9375c-0.34375 0-0.52344-0.29687-0.52344-0.51953v-6.9062c0-0.21875 0.17969-0.51953 0.52344-0.51953"/>
   <path d="m227.88 767.06h6.918c0.33984 0 0.52344 0.29297 0.52344 0.51953v6.8828c0 0.22657-0.1875 0.51953-0.52344 0.51953h-6.918c-0.33594 0-0.51953-0.29296-0.51953-0.51953v-6.8828c0-0.22266 0.18359-0.51953 0.51953-0.51953"/>
   <path d="m227.89 767.07h6.8945c0.33984 0 0.52344 0.29297 0.52344 0.51562v6.8672c0 0.22656-0.1875 0.51563-0.52344 0.51563h-6.8945c-0.33594 0-0.51953-0.28907-0.51953-0.51563v-6.8672c0-0.22265 0.18359-0.51562 0.51953-0.51562"/>
  </g>
  <g fill="#efefee">
   <path d="m227.89 767.09h6.8789c0.33203 0 0.51953 0.28906 0.51953 0.51562v6.8438c0 0.22656-0.1875 0.51563-0.51953 0.51563h-6.8789c-0.33203 0-0.51562-0.28907-0.51562-0.51563v-6.8438c0-0.22656 0.18359-0.51562 0.51562-0.51562"/>
   <path d="m227.91 767.1h6.8555c0.33203 0 0.51953 0.28515 0.51953 0.51171v6.8281c0 0.22656-0.1875 0.51562-0.51953 0.51562h-6.8555c-0.32813 0-0.51953-0.28906-0.51953-0.51562v-6.8281c0-0.22656 0.1914-0.51171 0.51953-0.51171"/>
   <path d="m227.92 767.11h6.832c0.33203 0 0.51953 0.28516 0.51953 0.51172v6.8047c0 0.23047-0.1875 0.51563-0.51953 0.51563h-6.832c-0.32813 0-0.51953-0.28516-0.51953-0.51563v-6.8047c0-0.22656 0.1914-0.51172 0.51953-0.51172"/>
  </g>
  <g fill="#f1f1f1">
   <path d="m227.93 767.12h6.8164c0.32812 0 0.51562 0.28515 0.51562 0.51562v6.7812c0 0.23047-0.1875 0.51563-0.51562 0.51563h-6.8164c-0.32422 0-0.51562-0.28516-0.51562-0.51563v-6.7812c0-0.23047 0.1914-0.51562 0.51562-0.51562"/>
   <path d="m227.94 767.13h6.793c0.32812 0 0.51562 0.28125 0.51562 0.51562v6.7578c0 0.23438-0.1914 0.51563-0.51562 0.51563h-6.793c-0.32422 0-0.51563-0.28125-0.51563-0.51563v-6.7578c0-0.23437 0.19141-0.51562 0.51563-0.51562"/>
   <path d="m227.95 767.14h6.7734c0.32031 0 0.51171 0.27735 0.51171 0.51172v6.7422c0 0.23438-0.1914 0.51172-0.51171 0.51172h-6.7734c-0.32422 0-0.51563-0.27734-0.51563-0.51172v-6.7422c0-0.23437 0.19141-0.51172 0.51563-0.51172"/>
  </g>
  <g fill="#f4f3f2">
   <path d="m227.96 767.15h6.7539c0.32031 0 0.51562 0.27344 0.51562 0.51172v6.7188c0 0.23828-0.19531 0.51172-0.51562 0.51172h-6.7539c-0.32031 0-0.51172-0.27344-0.51172-0.51172v-6.7188c0-0.23828 0.19141-0.51172 0.51172-0.51172"/>
   <path d="m227.97 767.16h6.7344c0.31641 0 0.51172 0.27344 0.51172 0.51172v6.6992c0 0.23828-0.19531 0.50781-0.51172 0.50781h-6.7344c-0.31641 0-0.51172-0.26953-0.51172-0.50781v-6.6992c0-0.23828 0.19531-0.51172 0.51172-0.51172"/>
   <path d="m227.98 767.18h6.7109c0.3164 0 0.51171 0.26953 0.51171 0.50781v6.6797c0 0.24219-0.19531 0.51172-0.51171 0.51172h-6.7109c-0.31641 0-0.51172-0.26953-0.51172-0.51172v-6.6797c0-0.23828 0.19531-0.50781 0.51172-0.50781"/>
   <path d="m227.99 767.19h6.6914c0.3125 0 0.51172 0.26562 0.51172 0.50781v6.6602c0 0.23828-0.19922 0.50781-0.51172 0.50781h-6.6914c-0.3125 0-0.51172-0.26953-0.51172-0.50781v-6.6602c0-0.24219 0.19922-0.50781 0.51172-0.50781"/>
  </g>
  <g fill="#f5f6f6">
   <path d="m228 767.2h6.6719c0.3086 0 0.50782 0.26563 0.50782 0.51172v6.6367c0 0.24219-0.19922 0.50781-0.50782 0.50781h-6.6719c-0.3125 0-0.51172-0.26562-0.51172-0.50781v-6.6367c0-0.24609 0.19922-0.51172 0.51172-0.51172"/>
   <path d="m228.01 767.21h6.6524c0.30859 0 0.50781 0.26172 0.50781 0.50781v6.6172c0 0.24609-0.19922 0.50781-0.50781 0.50781h-6.6524c-0.30469 0-0.50781-0.26172-0.50781-0.50781v-6.6172c0-0.24609 0.20312-0.50781 0.50781-0.50781"/>
   <path d="m228.02 767.22h6.6289c0.30859 0 0.50781 0.26172 0.50781 0.50781v6.5977c0 0.24609-0.19922 0.5039-0.50781 0.5039h-6.6289c-0.30469 0-0.50781-0.25781-0.50781-0.5039v-6.5977c0-0.24609 0.20312-0.50781 0.50781-0.50781"/>
  </g>
  <g fill="#f8f8f8">
   <path d="m228.03 767.23h6.6055c0.30469 0 0.50781 0.25781 0.50781 0.5039v6.5781c0 0.25-0.20312 0.50781-0.50781 0.50781h-6.6055c-0.30469 0-0.50781-0.25781-0.50781-0.50781v-6.5781c0-0.24609 0.20312-0.5039 0.50781-0.5039"/>
   <path d="m228.04 767.24h6.5898c0.30078 0 0.5039 0.2539 0.5039 0.5039v6.5547c0 0.25-0.20312 0.50391-0.5039 0.50391h-6.5898c-0.30078 0-0.5039-0.25391-0.5039-0.50391v-6.5547c0-0.25 0.20312-0.5039 0.5039-0.5039"/>
   <path d="m228.05 767.25h6.5664c0.30078 0 0.5039 0.25 0.5039 0.5v6.5391c0 0.25-0.20312 0.5-0.5039 0.5h-6.5664c-0.30078 0-0.50391-0.25-0.50391-0.5v-6.5391c0-0.25 0.20313-0.5 0.50391-0.5"/>
  </g>
  <g fill="#fbfbfb">
   <path d="m228.06 767.27h6.5469c0.29688 0 0.5 0.2461 0.5 0.5v6.5156c0 0.25391-0.20312 0.50391-0.5 0.50391h-6.5469c-0.29688 0-0.50391-0.25-0.50391-0.50391v-6.5156c0-0.2539 0.20703-0.5 0.50391-0.5"/>
   <path d="m228.07 767.27h6.5274c0.29296 0 0.5039 0.25 0.5039 0.5039v6.4922c0 0.25391-0.21094 0.50391-0.5039 0.50391h-6.5274c-0.29297 0-0.5039-0.25-0.5039-0.50391v-6.4922c0-0.2539 0.21093-0.5039 0.5039-0.5039"/>
   <path d="m228.08 767.29h6.5039c0.29297 0 0.5039 0.24609 0.5039 0.5v6.4766c0 0.25781-0.21093 0.5-0.5039 0.5h-6.5039c-0.29297 0-0.50391-0.24219-0.50391-0.5v-6.4766c0-0.25391 0.21094-0.5 0.50391-0.5"/>
  </g>
  <g fill="#fcfcfc">
   <path d="m228.09 767.3h6.4844c0.28907 0 0.5 0.24219 0.5 0.5v6.4531c0 0.25781-0.21093 0.5-0.5 0.5h-6.4844c-0.29297 0-0.50391-0.24219-0.50391-0.5v-6.4531c0-0.25781 0.21094-0.5 0.50391-0.5"/>
   <path d="m228.1 767.31h6.4648c0.28906 0 0.5 0.23828 0.5 0.5v6.4336c0 0.25781-0.21094 0.49609-0.5 0.49609h-6.4648c-0.28515 0-0.5-0.23828-0.5-0.49609v-6.4336c0-0.26172 0.21485-0.5 0.5-0.5"/>
   <path d="m228.11 767.32h6.4453c0.28516 0 0.4961 0.23828 0.4961 0.4961v6.4141c0 0.26172-0.21094 0.5-0.4961 0.5h-6.4453c-0.28516 0-0.5-0.23828-0.5-0.5v-6.4141c0-0.25782 0.21484-0.4961 0.5-0.4961"/>
   <path d="m228.12 767.33h6.4258c0.28125 0 0.4961 0.23438 0.4961 0.49609v6.3906c0 0.26562-0.21485 0.49609-0.4961 0.49609h-6.4258c-0.28125 0-0.49609-0.23047-0.49609-0.49609v-6.3906c0-0.26171 0.21484-0.49609 0.49609-0.49609"/>
  </g>
  <g fill="#fff">
   <path d="m228.13 767.34h6.4024c0.28125 0 0.5 0.23047 0.5 0.49219v6.375c0 0.26562-0.21875 0.49609-0.5 0.49609h-6.4024c-0.28125 0-0.5-0.23047-0.5-0.49609v-6.375c0-0.26172 0.21875-0.49219 0.5-0.49219"/>
   <path d="m228.14 767.36h6.3828c0.27735 0 0.4961 0.22656 0.4961 0.49219v6.3516c0 0.26562-0.21875 0.49609-0.4961 0.49609h-6.3828c-0.28125 0-0.5-0.23047-0.5-0.49609v-6.3516c0-0.26563 0.21875-0.49219 0.5-0.49219"/>
   <path d="m228.16 767.36h6.3594c0.27735 0 0.4961 0.22656 0.4961 0.49609v6.332c0 0.26562-0.21875 0.49218-0.4961 0.49218h-6.3594c-0.27734 0-0.5-0.22656-0.5-0.49218v-6.332c0-0.26953 0.22266-0.49609 0.5-0.49609"/>
   <path d="m228.16 767.38h6.3398c0.27734 0 0.49609 0.22656 0.49609 0.49219v6.3125c0 0.26953-0.21875 0.49218-0.49609 0.49218h-6.3398c-0.27344 0-0.49609-0.22265-0.49609-0.49218v-6.3125c0-0.26563 0.22265-0.49219 0.49609-0.49219"/>
   <path d="m234.99 774.17c0 0.27344-0.22266 0.49219-0.49609 0.49219h-6.3164c-0.27344 0-0.49609-0.21875-0.49609-0.49219v-6.2891c0-0.26954 0.22265-0.49219 0.49609-0.49219h6.3164c0.27343 0 0.49609 0.22265 0.49609 0.49219z"/>
  </g>
 </g>
</svg>
